<svg width="24" height="24" viewBox="0 0 24 24" fill="none" xmlns="http://www.w3.org/2000/svg">
<path d="M21.0427 12.7959L14.2927 19.5459C14.0814 19.7572 13.7947 19.8759 13.4958 19.8759C13.197 19.8759 12.9103 19.7572 12.699 19.5459C12.4876 19.3345 12.3689 19.0479 12.3689 18.749C12.3689 18.4501 12.4876 18.1635 12.699 17.9521L17.528 13.1249L3.74677 13.1249C3.4484 13.1249 3.16226 13.0064 2.95128 12.7954C2.7403 12.5844 2.62177 12.2983 2.62177 11.9999C2.62177 11.7016 2.7403 11.4154 2.95128 11.2044C3.16226 10.9934 3.4484 10.8749 3.74677 10.8749L17.528 10.8749L12.7008 6.04492C12.4895 5.83358 12.3708 5.54693 12.3708 5.24804C12.3708 4.94916 12.4895 4.66251 12.7008 4.45117C12.9122 4.23983 13.1988 4.12109 13.4977 4.12109C13.7966 4.12109 14.0832 4.23983 14.2946 4.45117L21.0446 11.2012C21.1495 11.3058 21.2327 11.4302 21.2894 11.5671C21.3461 11.704 21.3752 11.8507 21.375 11.9989C21.3748 12.1471 21.3454 12.2938 21.2884 12.4305C21.2313 12.5673 21.1479 12.6914 21.0427 12.7959Z" fill="#7F8FA8"/>
</svg>
