<svg viewBox="0 0 18 22" fill="none" xmlns="http://www.w3.org/2000/svg">
<path fill-rule="evenodd" clip-rule="evenodd" d="M8.99984 2C7.34299 2 5.99984 3.34315 5.99984 5C5.99984 6.65685 7.34299 8 8.99984 8C10.6567 8 11.9998 6.65685 11.9998 5C11.9998 3.34315 10.6567 2 8.99984 2ZM4.49984 5C4.49984 2.51472 6.51456 0.5 8.99984 0.5C11.4851 0.5 13.4998 2.51472 13.4998 5C13.4998 7.48528 11.4851 9.5 8.99984 9.5C6.51456 9.5 4.49984 7.48528 4.49984 5ZM2.27693 18.6409C4.34216 19.5158 6.61374 20 9.00016 20C11.3864 20 13.6577 19.5159 15.7228 18.6412C15.4151 15.1987 12.5226 12.5 8.99984 12.5C5.47721 12.5 2.58472 15.1985 2.27693 18.6409ZM0.751088 19.1053C0.828429 14.6156 4.49183 11 8.99984 11C13.508 11 17.1714 14.6157 17.2486 19.1056C17.2537 19.4034 17.0822 19.676 16.8115 19.8002C14.4326 20.8918 11.7864 21.5 9.00016 21.5C6.2137 21.5 3.56728 20.8917 1.18816 19.7999C0.917494 19.6757 0.745959 19.4031 0.751088 19.1053Z" fill=""/>
</svg>
