<svg width="14" height="14" viewBox="0 0 14 14" fill="none" xmlns="http://www.w3.org/2000/svg">
<path fill-rule="evenodd" clip-rule="evenodd" d="M7.17678 1.38389C7.07915 1.28626 6.92085 1.28626 6.82322 1.38389L2.5 5.70712V12.25C2.5 12.3881 2.61193 12.5 2.75 12.5H5V9.75001C5 9.05965 5.55964 8.50001 6.25 8.50001H7.75C8.44036 8.50001 9 9.05965 9 9.75001V12.5H11.25C11.3881 12.5 11.5 12.3881 11.5 12.25V5.70712L7.17678 1.38389ZM12.5 6.70712L13.1464 7.35356C13.3417 7.54882 13.6583 7.54882 13.8536 7.35356C14.0488 7.1583 14.0488 6.84172 13.8536 6.64646L7.88388 0.676785C7.39573 0.18863 6.60427 0.18863 6.11612 0.676786L1.64674 5.14616C1.64655 5.14636 1.64694 5.14596 1.64674 5.14616L0.146447 6.64646C-0.0488155 6.84172 -0.0488155 7.1583 0.146447 7.35356C0.341709 7.54882 0.658291 7.54882 0.853553 7.35356L1.5 6.70712V12.25C1.5 12.9404 2.05964 13.5 2.75 13.5H11.25C11.9404 13.5 12.5 12.9404 12.5 12.25V6.70712ZM8 12.5H6V9.75001C6 9.61194 6.11193 9.50001 6.25 9.50001H7.75C7.88807 9.50001 8 9.61194 8 9.75001V12.5Z" fill=""/>
</svg>
