<svg width="20" height="21" viewBox="0 0 20 21" fill="none" xmlns="http://www.w3.org/2000/svg">
<path d="M17.5 1.625H15.625V1.25C15.625 0.951631 15.5065 0.665483 15.2955 0.454505C15.0845 0.243526 14.7984 0.125 14.5 0.125C14.2016 0.125 13.9155 0.243526 13.7045 0.454505C13.4935 0.665483 13.375 0.951631 13.375 1.25V1.625H6.625V1.25C6.625 0.951631 6.50647 0.665483 6.2955 0.454505C6.08452 0.243526 5.79837 0.125 5.5 0.125C5.20163 0.125 4.91548 0.243526 4.7045 0.454505C4.49353 0.665483 4.375 0.951631 4.375 1.25V1.625H2.5C2.00272 1.625 1.52581 1.82254 1.17417 2.17417C0.822544 2.52581 0.625 3.00272 0.625 3.5V18.5C0.625 18.9973 0.822544 19.4742 1.17417 19.8258C1.52581 20.1775 2.00272 20.375 2.5 20.375H17.5C17.9973 20.375 18.4742 20.1775 18.8258 19.8258C19.1775 19.4742 19.375 18.9973 19.375 18.5V3.5C19.375 3.00272 19.1775 2.52581 18.8258 2.17417C18.4742 1.82254 17.9973 1.625 17.5 1.625ZM4.375 3.875C4.375 4.17337 4.49353 4.45952 4.7045 4.6705C4.91548 4.88147 5.20163 5 5.5 5C5.79837 5 6.08452 4.88147 6.2955 4.6705C6.50647 4.45952 6.625 4.17337 6.625 3.875H13.375C13.375 4.17337 13.4935 4.45952 13.7045 4.6705C13.9155 4.88147 14.2016 5 14.5 5C14.7984 5 15.0845 4.88147 15.2955 4.6705C15.5065 4.45952 15.625 4.17337 15.625 3.875H17.125V6.125H2.875V3.875H4.375ZM2.875 18.125V8.375H17.125V18.125H2.875ZM8.5 10.625V15.875C8.5 16.1734 8.38147 16.4595 8.1705 16.6705C7.95952 16.8815 7.67337 17 7.375 17C7.07663 17 6.79048 16.8815 6.5795 16.6705C6.36853 16.4595 6.25 16.1734 6.25 15.875V12.4363C5.98232 12.5241 5.69141 12.5083 5.4348 12.392C5.17819 12.2757 4.97456 12.0674 4.86416 11.8082C4.75377 11.549 4.74464 11.2578 4.8386 10.9922C4.93255 10.7266 5.12274 10.5059 5.37156 10.3737L6.87156 9.62375C7.04272 9.5381 7.23289 9.49754 7.4241 9.50589C7.6153 9.51424 7.80122 9.57123 7.96425 9.67147C8.12729 9.77171 8.26205 9.91189 8.3558 10.0787C8.44955 10.2456 8.49918 10.4336 8.5 10.625ZM14.2647 13.8013L13.3656 14.75H13.75C14.0484 14.75 14.3345 14.8685 14.5455 15.0795C14.7565 15.2905 14.875 15.5766 14.875 15.875C14.875 16.1734 14.7565 16.4595 14.5455 16.6705C14.3345 16.8815 14.0484 17 13.75 17H10.75C10.5302 16.9999 10.3151 16.9354 10.1315 16.8145C9.94794 16.6936 9.80381 16.5215 9.71694 16.3195C9.63007 16.1176 9.60428 15.8946 9.64276 15.6781C9.68124 15.4617 9.78229 15.2612 9.93344 15.1016L12.5734 12.3125C12.6068 12.2556 12.6246 12.1909 12.625 12.125C12.6252 12.0423 12.5981 11.9618 12.5478 11.8961C12.4975 11.8304 12.4269 11.7832 12.347 11.7618C12.2671 11.7404 12.1823 11.746 12.1059 11.7778C12.0296 11.8096 11.9658 11.8657 11.9247 11.9375C11.7726 12.1901 11.5275 12.3729 11.242 12.4465C10.9566 12.5202 10.6536 12.4789 10.3983 12.3315C10.143 12.184 9.95576 11.9423 9.87689 11.6582C9.79802 11.3741 9.83381 11.0704 9.97656 10.8125C10.2655 10.312 10.7114 9.92083 11.2453 9.69966C11.7792 9.47848 12.3712 9.43966 12.9294 9.58923C13.4876 9.7388 13.9808 10.0684 14.3326 10.5269C14.6844 10.9854 14.875 11.5471 14.875 12.125C14.8767 12.6956 14.6909 13.2509 14.3463 13.7056C14.3211 13.7392 14.2939 13.7711 14.2647 13.8013Z" fill=""/>
</svg>
