<svg height='14px' width='14px' viewBox="0 0 14 14" fill="none" xmlns="http://www.w3.org/2000/svg">
<path d="M13.25 2V8.5C13.25 8.83152 13.1183 9.14946 12.8839 9.38388C12.6495 9.6183 12.3315 9.75 12 9.75H6.0575C6.18473 9.89589 6.25063 10.0853 6.2414 10.2787C6.23218 10.472 6.14854 10.6544 6.008 10.7875C5.86746 10.9206 5.68089 10.9942 5.48731 10.9929C5.29374 10.9917 5.10815 10.9156 4.96938 10.7806L3.71938 9.53063C3.64946 9.46095 3.59398 9.37815 3.55612 9.28699C3.51827 9.19583 3.49878 9.09809 3.49878 8.99938C3.49878 8.90067 3.51827 8.80293 3.55612 8.71176C3.59398 8.6206 3.64946 8.5378 3.71938 8.46813L4.96938 7.21813C5.10744 7.07916 5.29439 6.99972 5.49026 6.99681C5.68613 6.99389 5.87537 7.06772 6.01751 7.20251C6.15965 7.33731 6.24341 7.52236 6.25088 7.71811C6.25836 7.91386 6.18895 8.10476 6.0575 8.25H11.75V2.25H5.25C5.25 2.44891 5.17098 2.63968 5.03033 2.78033C4.88968 2.92098 4.69891 3 4.5 3C4.30109 3 4.11032 2.92098 3.96967 2.78033C3.82902 2.63968 3.75 2.44891 3.75 2.25V2C3.75 1.66848 3.8817 1.35054 4.11612 1.11612C4.35054 0.881696 4.66848 0.75 5 0.75H12C12.3315 0.75 12.6495 0.881696 12.8839 1.11612C13.1183 1.35054 13.25 1.66848 13.25 2ZM9.5 11C9.30109 11 9.11032 11.079 8.96967 11.2197C8.82902 11.3603 8.75 11.5511 8.75 11.75H2.25V5.75H7.9425C7.81527 5.89589 7.74937 6.08533 7.7586 6.27869C7.76782 6.47205 7.85145 6.65435 7.992 6.78747C8.13254 6.92059 8.31911 6.99421 8.51269 6.99293C8.70626 6.99165 8.89185 6.91558 9.03063 6.78062L10.2806 5.53062C10.3505 5.46095 10.406 5.37815 10.4439 5.28699C10.4817 5.19583 10.5012 5.09809 10.5012 4.99937C10.5012 4.90066 10.4817 4.80292 10.4439 4.71176C10.406 4.6206 10.3505 4.5378 10.2806 4.46812L9.03063 3.21812C8.89256 3.07916 8.70561 2.99972 8.50974 2.99681C8.31387 2.99389 8.12463 3.06772 7.98249 3.20251C7.84035 3.33731 7.75659 3.52236 7.74912 3.71811C7.74164 3.91386 7.81105 4.10476 7.9425 4.25H2C1.66848 4.25 1.35054 4.3817 1.11612 4.61612C0.881696 4.85054 0.75 5.16848 0.75 5.5V12C0.75 12.3315 0.881696 12.6495 1.11612 12.8839C1.35054 13.1183 1.66848 13.25 2 13.25H9C9.33152 13.25 9.64946 13.1183 9.88388 12.8839C10.1183 12.6495 10.25 12.3315 10.25 12V11.75C10.25 11.5511 10.171 11.3603 10.0303 11.2197C9.88968 11.079 9.69891 11 9.5 11Z" fill=""/>
</svg>
