<svg width="12" height="14" viewBox="0 0 12 14" fill="none" xmlns="http://www.w3.org/2000/svg">
<path fill-rule="evenodd" clip-rule="evenodd" d="M2 1.5C1.44772 1.5 1 1.94772 1 2.5L1 11.5C1 12.0523 1.44772 12.5 2 12.5H6C6.55228 12.5 7 12.0523 7 11.5V9C7 8.72386 7.22386 8.5 7.5 8.5C7.77614 8.5 8 8.72386 8 9V11.5C8 12.6046 7.10457 13.5 6 13.5H2C0.895431 13.5 -5.96046e-08 12.6046 0 11.5L3.8743e-07 2.5C4.47035e-07 1.39543 0.895431 0.5 2 0.5L6 0.5C7.10457 0.5 8 1.39543 8 2.5V5C8 5.27614 7.77614 5.5 7.5 5.5C7.22386 5.5 7 5.27614 7 5V2.5C7 1.94772 6.55228 1.5 6 1.5L2 1.5ZM9.14645 4.64645C9.34171 4.45119 9.65829 4.45119 9.85355 4.64645L11.8536 6.64645C12.0488 6.84171 12.0488 7.15829 11.8536 7.35355L9.85355 9.35355C9.65829 9.54882 9.34171 9.54882 9.14645 9.35355C8.95118 9.15829 8.95118 8.84171 9.14645 8.64645L10.2929 7.5L3 7.5C2.72386 7.5 2.5 7.27614 2.5 7C2.5 6.72386 2.72386 6.5 3 6.5L10.2929 6.5L9.14645 5.35355C8.95119 5.15829 8.95119 4.84171 9.14645 4.64645Z" fill="#7F8FA8"/>
</svg>
