<svg width="326" height="112" viewBox="0 0 326 112" fill="none" xmlns="http://www.w3.org/2000/svg">
<path d="M1.23295 20.8182H2.70455L6.16477 29.2699H6.28409L9.74432 20.8182H11.2159V31H10.0625V23.2642H9.96307L6.78125 31H5.66761L2.4858 23.2642H2.38636V31H1.23295V20.8182ZM16.7306 31.1591C15.9949 31.1591 15.3601 30.9967 14.8265 30.6719C14.2962 30.3438 13.8869 29.8864 13.5985 29.2997C13.3135 28.7098 13.171 28.0237 13.171 27.2415C13.171 26.4593 13.3135 25.7699 13.5985 25.1733C13.8869 24.5734 14.2879 24.1061 14.8017 23.7713C15.3187 23.4332 15.9219 23.2642 16.6113 23.2642C17.0091 23.2642 17.4018 23.3305 17.7896 23.4631C18.1774 23.5956 18.5304 23.8111 18.8485 24.1094C19.1667 24.4044 19.4203 24.7955 19.6092 25.2827C19.7981 25.7699 19.8926 26.3698 19.8926 27.0824V27.5795H14.0062V26.5653H18.6994C18.6994 26.1345 18.6132 25.75 18.4409 25.4119C18.2718 25.0739 18.0299 24.8071 17.715 24.6115C17.4035 24.416 17.0356 24.3182 16.6113 24.3182C16.144 24.3182 15.7396 24.4342 15.3983 24.6662C15.0602 24.8949 14.8 25.1932 14.6177 25.5611C14.4354 25.929 14.3443 26.3234 14.3443 26.7443V27.4205C14.3443 27.9972 14.4437 28.486 14.6426 28.8871C14.8448 29.2848 15.1248 29.5881 15.4828 29.7969C15.8407 30.0024 16.2567 30.1051 16.7306 30.1051C17.0389 30.1051 17.3173 30.062 17.5659 29.9759C17.8178 29.8864 18.0349 29.7538 18.2172 29.5781C18.3994 29.3991 18.5403 29.1771 18.6397 28.9119L19.7733 29.2301C19.6539 29.6146 19.4534 29.9527 19.1717 30.2443C18.89 30.5327 18.542 30.758 18.1277 30.9205C17.7134 31.0795 17.2477 31.1591 16.7306 31.1591ZM24.5609 31.1591C23.9245 31.1591 23.3627 30.9983 22.8755 30.6768C22.3883 30.352 22.0072 29.8946 21.7321 29.3047C21.457 28.7114 21.3194 28.0104 21.3194 27.2017C21.3194 26.3996 21.457 25.7036 21.7321 25.1136C22.0072 24.5237 22.39 24.0679 22.8805 23.7464C23.371 23.425 23.9378 23.2642 24.5808 23.2642C25.0779 23.2642 25.4707 23.3471 25.7591 23.5128C26.0507 23.6752 26.2728 23.8608 26.4252 24.0696C26.581 24.2751 26.702 24.4441 26.7882 24.5767H26.8876V20.8182H28.0609V31H26.9274V29.8267H26.7882C26.702 29.9659 26.5794 30.1416 26.4203 30.3537C26.2612 30.5625 26.0342 30.7498 25.7392 30.9155C25.4442 31.0779 25.0514 31.1591 24.5609 31.1591ZM24.72 30.1051C25.1906 30.1051 25.5884 29.9825 25.9132 29.7372C26.238 29.4886 26.4849 29.1456 26.6539 28.7081C26.823 28.2673 26.9075 27.7585 26.9075 27.1818C26.9075 26.6117 26.8246 26.1129 26.6589 25.6854C26.4932 25.2545 26.2479 24.9197 25.9231 24.6811C25.5983 24.4392 25.1973 24.3182 24.72 24.3182C24.2228 24.3182 23.8085 24.4458 23.4771 24.701C23.149 24.9529 22.902 25.2959 22.7363 25.7301C22.5739 26.161 22.4927 26.6449 22.4927 27.1818C22.4927 27.7254 22.5756 28.2192 22.7413 28.6634C22.9103 29.1042 23.1589 29.4555 23.487 29.7173C23.8185 29.9759 24.2295 30.1051 24.72 30.1051ZM32.6199 31.179C32.1359 31.179 31.6968 31.0878 31.3024 30.9055C30.908 30.7199 30.5948 30.4531 30.3627 30.1051C30.1307 29.7538 30.0147 29.3295 30.0147 28.8324C30.0147 28.3949 30.1009 28.0402 30.2733 27.7685C30.4456 27.4934 30.676 27.2779 30.9643 27.1222C31.2527 26.9664 31.5708 26.8504 31.9189 26.7741C32.2702 26.6946 32.6232 26.6316 32.9778 26.5852C33.4418 26.5256 33.818 26.4808 34.1064 26.451C34.398 26.4179 34.6101 26.3632 34.7427 26.2869C34.8786 26.2107 34.9466 26.0781 34.9466 25.8892V25.8494C34.9466 25.3589 34.8123 24.9777 34.5439 24.706C34.2787 24.4342 33.876 24.2983 33.3358 24.2983C32.7756 24.2983 32.3365 24.4209 32.0183 24.6662C31.7001 24.9115 31.4764 25.1733 31.3471 25.4517L30.2335 25.054C30.4324 24.59 30.6975 24.2287 31.0289 23.9702C31.3637 23.7083 31.7283 23.526 32.1227 23.4233C32.5204 23.3172 32.9115 23.2642 33.296 23.2642C33.5413 23.2642 33.823 23.294 34.1412 23.3537C34.4627 23.41 34.7725 23.5277 35.0708 23.7067C35.3725 23.8857 35.6227 24.1558 35.8216 24.517C36.0204 24.8783 36.1199 25.3622 36.1199 25.9688V31H34.9466V29.9659H34.8869C34.8074 30.1316 34.6748 30.3089 34.4892 30.4979C34.3036 30.6868 34.0566 30.8475 33.7484 30.9801C33.4402 31.1127 33.064 31.179 32.6199 31.179ZM32.7988 30.125C33.2628 30.125 33.6539 30.0339 33.9721 29.8516C34.2936 29.6693 34.5356 29.4339 34.698 29.1456C34.8637 28.8572 34.9466 28.554 34.9466 28.2358V27.1619C34.8968 27.2216 34.7875 27.2763 34.6184 27.326C34.4527 27.3724 34.2605 27.4138 34.0417 27.4503C33.8263 27.4834 33.6158 27.5133 33.4103 27.5398C33.2082 27.563 33.0441 27.5829 32.9181 27.5994C32.6132 27.6392 32.3282 27.7038 32.063 27.7933C31.8012 27.8795 31.5891 28.0104 31.4267 28.1861C31.2676 28.3584 31.188 28.5937 31.188 28.892C31.188 29.2997 31.3388 29.608 31.6404 29.8168C31.9454 30.0223 32.3315 30.125 32.7988 30.125ZM39.4347 20.8182V31H38.2614V20.8182H39.4347ZM46.9927 25.0739L45.9387 25.3722C45.8725 25.1965 45.7747 25.0258 45.6454 24.8601C45.5195 24.6911 45.3471 24.5518 45.1284 24.4425C44.9096 24.3331 44.6296 24.2784 44.2882 24.2784C43.8208 24.2784 43.4314 24.3861 43.1199 24.6016C42.8116 24.8137 42.6575 25.0838 42.6575 25.4119C42.6575 25.7036 42.7636 25.9339 42.9757 26.103C43.1878 26.272 43.5192 26.4129 43.97 26.5256L45.1035 26.804C45.7863 26.9697 46.295 27.2232 46.6298 27.5646C46.9645 27.9027 47.1319 28.3385 47.1319 28.8722C47.1319 29.3097 47.006 29.7008 46.7541 30.0455C46.5055 30.3902 46.1575 30.6619 45.71 30.8608C45.2626 31.0597 44.7422 31.1591 44.149 31.1591C43.3701 31.1591 42.7254 30.9901 42.215 30.652C41.7046 30.3139 41.3815 29.8201 41.2456 29.1705L42.3592 28.892C42.4653 29.303 42.6658 29.6113 42.9608 29.8168C43.2591 30.0223 43.6485 30.125 44.1291 30.125C44.676 30.125 45.1101 30.009 45.4316 29.777C45.7565 29.5417 45.9189 29.2599 45.9189 28.9318C45.9189 28.6667 45.8261 28.4446 45.6404 28.2656C45.4548 28.0833 45.1698 27.9474 44.7853 27.858L43.5126 27.5597C42.8133 27.3939 42.2995 27.1371 41.9714 26.7891C41.6466 26.4377 41.4842 25.9986 41.4842 25.4716C41.4842 25.0407 41.6052 24.6596 41.8471 24.3281C42.0924 23.9967 42.4255 23.7365 42.8464 23.5476C43.2707 23.3587 43.7512 23.2642 44.2882 23.2642C45.0439 23.2642 45.6371 23.4299 46.068 23.7614C46.5022 24.0928 46.8104 24.5303 46.9927 25.0739Z" fill="#35426F"/>
<path fill-rule="evenodd" clip-rule="evenodd" d="M168.284 81.8651C168.135 81.6475 168.275 81.3334 168.516 81.3334H171.487C171.671 81.3355 171.842 81.4294 171.943 81.5835L172.899 82.9724L170.975 85.7778L168.284 81.8651Z" fill="#0C173A"/>
<g filter="url(#filter0_d_861_86)">
<path fill-rule="evenodd" clip-rule="evenodd" d="M173.5 94.6667C172.472 94.6667 171.486 94.2571 170.758 93.5279C170.031 92.7982 169.623 91.8092 169.623 90.7778C169.623 89.7464 170.031 88.7574 170.758 88.0277C171.486 87.2985 172.472 86.8889 173.5 86.8889C174.528 86.8889 175.514 87.2985 176.242 88.0277C176.969 88.7574 177.377 89.7464 177.377 90.7778C177.377 91.8092 176.969 92.7982 176.242 93.5279C175.514 94.2571 174.528 94.6667 173.5 94.6667ZM173.5 91.9562L174.303 92.3799C174.395 92.4238 174.503 92.4141 174.586 92.3544C174.668 92.2942 174.712 92.1933 174.698 92.0924L174.544 91.195L175.195 90.5592C175.266 90.4848 175.289 90.3785 175.258 90.2809C175.227 90.1837 175.144 90.1116 175.044 90.0937L174.145 89.9629L173.744 89.1464C173.695 89.0564 173.602 89.0005 173.5 89.0005C173.398 89.0005 173.305 89.0564 173.256 89.1464L172.855 89.9629L171.957 90.0937C171.856 90.1116 171.774 90.1837 171.742 90.2809C171.711 90.3785 171.735 90.4849 171.806 90.5592L172.456 91.195L172.303 92.0924C172.289 92.1933 172.332 92.2942 172.414 92.3544C172.497 92.4141 172.605 92.4238 172.697 92.3799L173.5 91.9562Z" fill="#9F8F5E"/>
</g>
<path fill-rule="evenodd" clip-rule="evenodd" d="M173.5 85.9097C174.23 85.9091 174.951 86.0741 175.609 86.3931L178.716 81.8651C178.865 81.6475 178.725 81.3334 178.485 81.3334H175.513C175.329 81.3355 175.159 81.4294 175.058 81.5835L171.903 86.1804C172.417 86.0008 172.956 85.9097 173.5 85.9097H173.5Z" fill="#35426F"/>
<path fill-rule="evenodd" clip-rule="evenodd" d="M173.484 93.4172C174.86 93.4172 175.976 92.2979 175.976 90.9172C175.976 89.5365 174.86 88.4172 173.484 88.4172C172.107 88.4172 170.991 89.5365 170.991 90.9172C170.991 92.2979 172.107 93.4172 173.484 93.4172Z" fill="white"/>
<path fill-rule="evenodd" clip-rule="evenodd" d="M173.483 94.6667C172.455 94.6667 171.469 94.2571 170.742 93.5279C170.015 92.7982 169.606 91.8092 169.606 90.7778C169.606 89.7464 170.015 88.7574 170.742 88.0277C171.469 87.2985 172.455 86.8889 173.483 86.8889C174.512 86.8889 175.498 87.2985 176.225 88.0277C176.952 88.7574 177.361 89.7464 177.361 90.7778C177.361 91.8092 176.952 92.7982 176.225 93.5279C175.498 94.2571 174.512 94.6667 173.483 94.6667ZM173.484 91.9562L174.287 92.3799C174.379 92.4238 174.487 92.4141 174.57 92.3544C174.652 92.2942 174.695 92.1933 174.681 92.0924L174.527 91.195L175.178 90.5592C175.249 90.4848 175.273 90.3785 175.241 90.2809C175.21 90.1837 175.128 90.1116 175.027 90.0937L174.129 89.9629L173.727 89.1464C173.679 89.0564 173.585 89.0005 173.484 89.0005C173.382 89.0005 173.288 89.0564 173.24 89.1464L172.838 89.9629L171.94 90.0937C171.839 90.1116 171.757 90.1837 171.726 90.2809C171.694 90.3785 171.718 90.4849 171.789 90.5592L172.44 91.195L172.286 92.0924C172.272 92.1933 172.315 92.2942 172.397 92.3544C172.48 92.4141 172.588 92.4238 172.68 92.3799L173.484 91.9562Z" fill="#9F8F5E"/>
<path fill-rule="evenodd" clip-rule="evenodd" d="M232.284 81.8651C232.135 81.6475 232.275 81.3334 232.516 81.3334H235.487C235.671 81.3355 235.842 81.4294 235.943 81.5835L236.899 82.9724L234.975 85.7778L232.284 81.8651Z" fill="#0C173A"/>
<g filter="url(#filter1_d_861_86)">
<path fill-rule="evenodd" clip-rule="evenodd" d="M237.5 94.6667C236.472 94.6667 235.486 94.2571 234.758 93.5279C234.031 92.7982 233.623 91.8092 233.623 90.7778C233.623 89.7464 234.031 88.7574 234.758 88.0277C235.486 87.2985 236.472 86.8889 237.5 86.8889C238.528 86.8889 239.514 87.2985 240.242 88.0277C240.969 88.7574 241.377 89.7464 241.377 90.7778C241.377 91.8092 240.969 92.7982 240.242 93.5279C239.514 94.2571 238.528 94.6667 237.5 94.6667ZM237.5 91.9562L238.303 92.3799C238.395 92.4238 238.503 92.4141 238.586 92.3544C238.668 92.2942 238.712 92.1933 238.698 92.0924L238.544 91.195L239.195 90.5592C239.266 90.4848 239.289 90.3785 239.258 90.2809C239.227 90.1837 239.144 90.1116 239.044 90.0937L238.145 89.9629L237.744 89.1464C237.695 89.0564 237.602 89.0005 237.5 89.0005C237.398 89.0005 237.305 89.0564 237.256 89.1464L236.855 89.9629L235.957 90.0937C235.856 90.1116 235.774 90.1837 235.742 90.2809C235.711 90.3785 235.735 90.4849 235.806 90.5592L236.456 91.195L236.303 92.0924C236.289 92.1933 236.332 92.2942 236.414 92.3544C236.497 92.4141 236.605 92.4238 236.697 92.3799L237.5 91.9562Z" fill="#9F8F5E"/>
</g>
<path fill-rule="evenodd" clip-rule="evenodd" d="M237.5 85.9097C238.23 85.9091 238.951 86.0741 239.609 86.3931L242.716 81.8651C242.865 81.6475 242.725 81.3334 242.485 81.3334H239.513C239.329 81.3355 239.159 81.4294 239.058 81.5835L235.903 86.1804C236.417 86.0008 236.956 85.9097 237.5 85.9097H237.5Z" fill="#35426F"/>
<path fill-rule="evenodd" clip-rule="evenodd" d="M237.484 93.4172C238.86 93.4172 239.976 92.2979 239.976 90.9172C239.976 89.5365 238.86 88.4172 237.484 88.4172C236.107 88.4172 234.991 89.5365 234.991 90.9172C234.991 92.2979 236.107 93.4172 237.484 93.4172Z" fill="white"/>
<path fill-rule="evenodd" clip-rule="evenodd" d="M237.483 94.6667C236.455 94.6667 235.469 94.2571 234.742 93.5279C234.015 92.7982 233.606 91.8092 233.606 90.7778C233.606 89.7464 234.015 88.7574 234.742 88.0277C235.469 87.2985 236.455 86.8889 237.483 86.8889C238.512 86.8889 239.498 87.2985 240.225 88.0277C240.952 88.7574 241.361 89.7464 241.361 90.7778C241.361 91.8092 240.952 92.7982 240.225 93.5279C239.498 94.2571 238.512 94.6667 237.483 94.6667ZM237.484 91.9562L238.287 92.3799C238.379 92.4238 238.487 92.4141 238.57 92.3544C238.652 92.2942 238.695 92.1933 238.681 92.0924L238.527 91.195L239.178 90.5592C239.249 90.4848 239.273 90.3785 239.241 90.2809C239.21 90.1837 239.128 90.1116 239.027 90.0937L238.129 89.9629L237.727 89.1464C237.679 89.0564 237.585 89.0005 237.484 89.0005C237.382 89.0005 237.288 89.0564 237.24 89.1464L236.838 89.9629L235.94 90.0937C235.839 90.1116 235.757 90.1837 235.726 90.2809C235.694 90.3785 235.718 90.4849 235.789 90.5592L236.44 91.195L236.286 92.0924C236.272 92.1933 236.315 92.2942 236.397 92.3544C236.48 92.4141 236.588 92.4238 236.68 92.3799L237.484 91.9562Z" fill="#969696"/>
<path fill-rule="evenodd" clip-rule="evenodd" d="M296.284 81.8651C296.135 81.6475 296.275 81.3334 296.516 81.3334H299.487C299.671 81.3355 299.842 81.4294 299.943 81.5835L300.899 82.9724L298.975 85.7778L296.284 81.8651Z" fill="#0C173A"/>
<g filter="url(#filter2_d_861_86)">
<path fill-rule="evenodd" clip-rule="evenodd" d="M301.5 94.6667C300.472 94.6667 299.486 94.2571 298.758 93.5279C298.031 92.7982 297.623 91.8092 297.623 90.7778C297.623 89.7464 298.031 88.7574 298.758 88.0277C299.486 87.2985 300.472 86.8889 301.5 86.8889C302.528 86.8889 303.514 87.2985 304.242 88.0277C304.969 88.7574 305.377 89.7464 305.377 90.7778C305.377 91.8092 304.969 92.7982 304.242 93.5279C303.514 94.2571 302.528 94.6667 301.5 94.6667ZM301.5 91.9562L302.303 92.3799C302.395 92.4238 302.504 92.4141 302.586 92.3544C302.668 92.2942 302.712 92.1933 302.698 92.0924L302.544 91.195L303.195 90.5592C303.266 90.4848 303.289 90.3785 303.258 90.2809C303.227 90.1837 303.144 90.1116 303.044 90.0937L302.145 89.9629L301.744 89.1464C301.695 89.0564 301.602 89.0005 301.5 89.0005C301.399 89.0005 301.305 89.0564 301.256 89.1464L300.855 89.9629L299.957 90.0937C299.856 90.1116 299.774 90.1837 299.742 90.2809C299.711 90.3785 299.735 90.4849 299.806 90.5592L300.456 91.195L300.303 92.0924C300.289 92.1933 300.332 92.2942 300.414 92.3544C300.497 92.4141 300.605 92.4238 300.697 92.3799L301.5 91.9562Z" fill="#9F8F5E"/>
</g>
<path fill-rule="evenodd" clip-rule="evenodd" d="M301.5 85.9097C302.23 85.9091 302.951 86.0741 303.609 86.3931L306.716 81.8651C306.865 81.6475 306.725 81.3334 306.485 81.3334H303.513C303.329 81.3355 303.159 81.4294 303.058 81.5835L299.903 86.1804C300.417 86.0008 300.956 85.9097 301.5 85.9097H301.5Z" fill="#35426F"/>
<path fill-rule="evenodd" clip-rule="evenodd" d="M301.484 93.4172C302.86 93.4172 303.976 92.2979 303.976 90.9172C303.976 89.5365 302.86 88.4172 301.484 88.4172C300.107 88.4172 298.991 89.5365 298.991 90.9172C298.991 92.2979 300.107 93.4172 301.484 93.4172Z" fill="white"/>
<path fill-rule="evenodd" clip-rule="evenodd" d="M301.483 94.6667C300.455 94.6667 299.469 94.2571 298.742 93.5279C298.015 92.7982 297.606 91.8092 297.606 90.7778C297.606 89.7464 298.015 88.7574 298.742 88.0277C299.469 87.2985 300.455 86.8889 301.483 86.8889C302.512 86.8889 303.498 87.2985 304.225 88.0277C304.952 88.7574 305.361 89.7464 305.361 90.7778C305.361 91.8092 304.952 92.7982 304.225 93.5279C303.498 94.2571 302.512 94.6667 301.483 94.6667ZM301.484 91.9562L302.287 92.3799C302.379 92.4238 302.487 92.4141 302.57 92.3544C302.652 92.2942 302.695 92.1933 302.681 92.0924L302.527 91.195L303.178 90.5592C303.249 90.4848 303.273 90.3785 303.241 90.2809C303.21 90.1837 303.128 90.1116 303.027 90.0937L302.129 89.9629L301.727 89.1464C301.679 89.0564 301.585 89.0005 301.484 89.0005C301.382 89.0005 301.288 89.0564 301.24 89.1464L300.838 89.9629L299.94 90.0937C299.839 90.1116 299.757 90.1837 299.726 90.2809C299.694 90.3785 299.718 90.4849 299.789 90.5592L300.44 91.195L300.286 92.0924C300.272 92.1933 300.315 92.2942 300.397 92.3544C300.48 92.4141 300.588 92.4238 300.68 92.3799L301.484 91.9562Z" fill="#996B4F"/>
<rect x="150" y="64.5" width="175" height="47" rx="4.5" stroke="#9747FF" stroke-dasharray="10 5"/>
<path fill-rule="evenodd" clip-rule="evenodd" d="M173.5 32C171.378 32 169.344 31.1574 167.843 29.6574C166.343 28.1563 165.5 26.1217 165.5 24C165.5 21.8783 166.343 19.8437 167.843 18.3426C169.344 16.8426 171.378 16 173.5 16C175.622 16 177.656 16.8426 179.157 18.3426C180.657 19.8437 181.5 21.8783 181.5 24C181.5 26.1217 180.657 28.1563 179.157 29.6574C177.656 31.1574 175.622 32 173.5 32Z" fill="#9F8F5E"/>
<path d="M174.86 22.3664C174.944 22.4907 175.009 22.6337 175.056 22.7956H176.52C176.473 22.4585 176.368 22.1502 176.204 21.8707C176.039 21.589 175.828 21.3462 175.568 21.1421C175.311 20.9381 175.016 20.7806 174.683 20.6697C174.35 20.5566 173.991 20.5 173.605 20.5C173.155 20.5 172.737 20.5787 172.351 20.7362C171.965 20.8937 171.627 21.1233 171.336 21.4249C171.046 21.7266 170.819 22.0947 170.658 22.5295C170.498 22.962 170.418 23.4544 170.418 24.0067C170.418 24.7253 170.552 25.3463 170.821 25.8698C171.091 26.391 171.468 26.7936 171.952 27.0775C172.435 27.3592 172.996 27.5 173.635 27.5C174.207 27.5 174.715 27.3847 175.159 27.154C175.603 26.9211 175.951 26.5906 176.204 26.1625C176.456 25.7323 176.583 25.2177 176.583 24.6188V23.7605H173.732V24.8451H175.195C175.195 25.1356 175.133 25.3441 175.009 25.557C174.887 25.77 174.71 25.9352 174.477 26.0528C174.246 26.1681 173.968 26.2258 173.642 26.2258C173.283 26.2258 172.971 26.1393 172.707 25.9663C172.443 25.791 172.239 25.5371 172.095 25.2044C171.951 24.8717 171.879 24.468 171.879 23.9933C171.879 23.5187 171.952 23.1172 172.098 22.789C172.244 22.4585 172.449 22.2067 172.71 22.0337C172.974 21.8607 173.28 21.7742 173.629 21.7742C173.815 21.7742 173.985 21.7975 174.138 21.8441C174.293 21.8907 174.43 21.9583 174.55 22.0471C174.672 22.1336 174.775 22.24 174.86 22.3664Z" fill="white"/>
<path fill-rule="evenodd" clip-rule="evenodd" d="M237.5 32C235.378 32 233.344 31.1574 231.843 29.6574C230.343 28.1563 229.5 26.1217 229.5 24C229.5 21.8783 230.343 19.8437 231.843 18.3426C233.344 16.8426 235.378 16 237.5 16C239.622 16 241.656 16.8426 243.157 18.3426C244.657 19.8437 245.5 21.8783 245.5 24C245.5 26.1217 244.657 28.1563 243.157 29.6574C241.656 31.1574 239.622 32 237.5 32Z" fill="#969696"/>
<path d="M238.721 22.5518C238.694 22.2835 238.58 22.0751 238.378 21.9266C238.176 21.7781 237.903 21.7038 237.557 21.7038C237.322 21.7038 237.123 21.7371 236.962 21.8036C236.8 21.8679 236.676 21.9576 236.589 22.0729C236.505 22.1882 236.463 22.319 236.463 22.4653C236.458 22.5873 236.484 22.6937 236.539 22.7846C236.597 22.8755 236.676 22.9542 236.775 23.0207C236.875 23.085 236.99 23.1415 237.121 23.1903C237.252 23.2368 237.392 23.2767 237.54 23.31L238.152 23.4563C238.449 23.5228 238.722 23.6115 238.97 23.7223C239.218 23.8332 239.433 23.9695 239.615 24.1314C239.797 24.2932 239.938 24.4838 240.038 24.7033C240.139 24.9228 240.192 25.1744 240.194 25.4582C240.192 25.875 240.085 26.2363 239.875 26.5423C239.666 26.846 239.365 27.0821 238.97 27.2506C238.578 27.4169 238.104 27.5 237.55 27.5C237 27.5 236.521 27.4158 236.114 27.2473C235.708 27.0788 235.391 26.8294 235.162 26.499C234.936 26.1665 234.818 25.7553 234.807 25.2653H236.2C236.216 25.4937 236.281 25.6843 236.396 25.8373C236.514 25.988 236.67 26.1022 236.865 26.1798C237.062 26.2552 237.285 26.2929 237.533 26.2929C237.777 26.2929 237.989 26.2574 238.169 26.1865C238.35 26.1155 238.491 26.0169 238.591 25.8905C238.691 25.7641 238.741 25.6189 238.741 25.4549C238.741 25.3019 238.695 25.1733 238.604 25.0691C238.516 24.9649 238.385 24.8762 238.212 24.8031C238.041 24.7299 237.832 24.6634 237.583 24.6036L236.842 24.4173C236.268 24.2777 235.814 24.0593 235.482 23.7622C235.149 23.4652 234.984 23.065 234.986 22.5618C234.984 22.1494 235.094 21.7892 235.315 21.481C235.539 21.1728 235.846 20.9323 236.237 20.7594C236.627 20.5865 237.07 20.5 237.567 20.5C238.072 20.5 238.513 20.5865 238.89 20.7594C239.269 20.9323 239.564 21.1728 239.775 21.481C239.985 21.7892 240.094 22.1461 240.101 22.5518H238.721Z" fill="white"/>
<path fill-rule="evenodd" clip-rule="evenodd" d="M301.5 32C299.378 32 297.344 31.1574 295.843 29.6574C294.343 28.1563 293.5 26.1217 293.5 24C293.5 21.8783 294.343 19.8437 295.843 18.3426C297.344 16.8426 299.378 16 301.5 16C303.622 16 305.656 16.8426 307.157 18.3426C308.657 19.8437 309.5 21.8783 309.5 24C309.5 26.1217 308.657 28.1563 307.157 29.6574C305.656 31.1574 303.622 32 301.5 32Z" fill="#996B4F"/>
<path d="M298.694 27.6364V20.3636H301.606C302.141 20.3636 302.588 20.443 302.945 20.6016C303.303 20.7602 303.571 20.9804 303.751 21.2621C303.931 21.5414 304.021 21.8634 304.021 22.228C304.021 22.5121 303.964 22.7618 303.851 22.9773C303.737 23.1904 303.581 23.3655 303.382 23.5029C303.185 23.6378 302.96 23.7337 302.707 23.7905V23.8615C302.984 23.8734 303.243 23.9515 303.485 24.0959C303.729 24.2403 303.926 24.4427 304.078 24.7031C304.229 24.9612 304.305 25.269 304.305 25.6264C304.305 26.0123 304.209 26.3568 304.017 26.6598C303.828 26.9605 303.548 27.1984 303.176 27.3736C302.804 27.5488 302.346 27.6364 301.802 27.6364H298.694ZM300.232 26.3793H301.486C301.914 26.3793 302.227 26.2976 302.423 26.1342C302.62 25.9685 302.718 25.7484 302.718 25.4737C302.718 25.2725 302.669 25.0949 302.572 24.9411C302.475 24.7872 302.337 24.6664 302.157 24.5788C301.979 24.4913 301.767 24.4475 301.521 24.4475H300.232V26.3793ZM300.232 23.407H301.372C301.583 23.407 301.77 23.3703 301.933 23.2969C302.099 23.2211 302.229 23.1146 302.324 22.9773C302.421 22.84 302.469 22.6754 302.469 22.4837C302.469 22.2209 302.376 22.009 302.189 21.848C302.004 21.687 301.741 21.6065 301.4 21.6065H300.232V23.407Z" fill="white"/>
<rect x="150" y="0.5" width="175" height="47" rx="4.5" stroke="#9747FF" stroke-dasharray="10 5"/>
<defs>
<filter id="filter0_d_861_86" x="158.501" y="78.5471" width="29.9987" height="30.0227" filterUnits="userSpaceOnUse" color-interpolation-filters="sRGB">
<feFlood flood-opacity="0" result="BackgroundImageFix"/>
<feColorMatrix in="SourceAlpha" type="matrix" values="0 0 0 0 0 0 0 0 0 0 0 0 0 0 0 0 0 0 127 0" result="hardAlpha"/>
<feOffset dy="2.7806"/>
<feGaussianBlur stdDeviation="5.56121"/>
<feColorMatrix type="matrix" values="0 0 0 0 0.92549 0 0 0 0 0.658824 0 0 0 0 0.188235 0 0 0 0.145078 0"/>
<feBlend mode="normal" in2="BackgroundImageFix" result="effect1_dropShadow_861_86"/>
<feBlend mode="normal" in="SourceGraphic" in2="effect1_dropShadow_861_86" result="shape"/>
</filter>
<filter id="filter1_d_861_86" x="222.501" y="78.5471" width="29.9987" height="30.0227" filterUnits="userSpaceOnUse" color-interpolation-filters="sRGB">
<feFlood flood-opacity="0" result="BackgroundImageFix"/>
<feColorMatrix in="SourceAlpha" type="matrix" values="0 0 0 0 0 0 0 0 0 0 0 0 0 0 0 0 0 0 127 0" result="hardAlpha"/>
<feOffset dy="2.7806"/>
<feGaussianBlur stdDeviation="5.56121"/>
<feColorMatrix type="matrix" values="0 0 0 0 0.588235 0 0 0 0 0.588235 0 0 0 0 0.588235 0 0 0 0.21 0"/>
<feBlend mode="normal" in2="BackgroundImageFix" result="effect1_dropShadow_861_86"/>
<feBlend mode="normal" in="SourceGraphic" in2="effect1_dropShadow_861_86" result="shape"/>
</filter>
<filter id="filter2_d_861_86" x="286.501" y="78.5471" width="29.9987" height="30.0227" filterUnits="userSpaceOnUse" color-interpolation-filters="sRGB">
<feFlood flood-opacity="0" result="BackgroundImageFix"/>
<feColorMatrix in="SourceAlpha" type="matrix" values="0 0 0 0 0 0 0 0 0 0 0 0 0 0 0 0 0 0 127 0" result="hardAlpha"/>
<feOffset dy="2.7806"/>
<feGaussianBlur stdDeviation="5.56121"/>
<feColorMatrix type="matrix" values="0 0 0 0 0.92549 0 0 0 0 0.658824 0 0 0 0 0.188235 0 0 0 0.145078 0"/>
<feBlend mode="normal" in2="BackgroundImageFix" result="effect1_dropShadow_861_86"/>
<feBlend mode="normal" in="SourceGraphic" in2="effect1_dropShadow_861_86" result="shape"/>
</filter>
</defs>
</svg>
