<svg width="9" height="15" viewBox="0 0 9 15" fill="none" xmlns="http://www.w3.org/2000/svg">
<path d="M8.41342 8.35075L2.16342 14.6007C1.9873 14.7769 1.74843 14.8758 1.49936 14.8758C1.25028 14.8758 1.01141 14.7769 0.835294 14.6007C0.659174 14.4246 0.560231 14.1858 0.560231 13.9367C0.560231 13.6876 0.659174 13.4487 0.835294 13.2726L6.42201 7.68747L0.836857 2.10075C0.749651 2.01354 0.680475 1.91001 0.63328 1.79607C0.586084 1.68213 0.561793 1.56001 0.561793 1.43668C0.561793 1.31336 0.586084 1.19124 0.63328 1.0773C0.680475 0.963356 0.749651 0.859828 0.836857 0.772622C0.924063 0.685416 1.02759 0.616241 1.14153 0.569045C1.25547 0.52185 1.37759 0.497558 1.50092 0.497558C1.62425 0.497558 1.74637 0.52185 1.86031 0.569045C1.97425 0.616241 2.07778 0.685416 2.16498 0.772622L8.41498 7.02262C8.50228 7.10982 8.57151 7.2134 8.61869 7.32741C8.66587 7.44142 8.69009 7.56362 8.68994 7.68701C8.6898 7.8104 8.66529 7.93254 8.61784 8.04644C8.57039 8.16034 8.50092 8.26375 8.41342 8.35075Z" fill="#7F8FA8"/>
</svg>
