<svg width="16" height="14" viewBox="0 0 16 14" fill="none" xmlns="http://www.w3.org/2000/svg">
<path d="M3.55476 0.995444C3.48889 0.9212 3.40895 0.860767 3.31956 0.817647C3.23017 0.774527 3.1331 0.749579 3.034 0.744247C2.93489 0.738915 2.83572 0.753307 2.74222 0.786587C2.64871 0.819868 2.56275 0.871375 2.4893 0.938124C2.41585 1.00487 2.35638 1.08554 2.31433 1.17544C2.27229 1.26534 2.24851 1.36269 2.24436 1.46186C2.24022 1.56102 2.2558 1.66002 2.2902 1.75311C2.3246 1.84621 2.37713 1.93155 2.44476 2.00419L3.44476 3.10732C1.29163 4.54107 0.357257 6.59857 0.312257 6.69544C0.269915 6.79144 0.248047 6.89521 0.248047 7.00013C0.248047 7.10505 0.269915 7.20882 0.312257 7.30482C0.335382 7.35607 0.882882 8.57107 2.09288 9.78044C3.71038 11.3961 5.74976 12.2498 7.99976 12.2498C9.09328 12.2559 10.177 12.0434 11.1873 11.6248L12.4429 13.0061C12.5774 13.1505 12.7633 13.2361 12.9605 13.2444C13.1577 13.2526 13.3502 13.1828 13.4962 13.0501C13.6423 12.9173 13.7301 12.7324 13.7408 12.5353C13.7514 12.3383 13.6839 12.145 13.5529 11.9973L3.55476 0.995444ZM7.99976 10.7498C6.15038 10.7498 4.53288 10.0792 3.19288 8.75732C2.66579 8.23542 2.21225 7.64415 1.84476 6.99982C2.17413 6.41794 3.01913 5.13107 4.46976 4.23169L10.1004 10.4261C9.42135 10.6429 8.71257 10.7521 7.99976 10.7498ZM15.6873 7.30482C15.6648 7.35544 15.1248 8.55482 13.9373 9.75232C13.8693 9.8278 13.7866 9.88868 13.6944 9.93126C13.6022 9.97384 13.5022 9.99724 13.4007 10C13.2991 10.0028 13.1981 9.98497 13.1036 9.94753C13.0092 9.91008 12.9233 9.85384 12.8513 9.78222C12.7792 9.71059 12.7225 9.62507 12.6845 9.53085C12.6465 9.43663 12.628 9.33568 12.6302 9.23411C12.6324 9.13254 12.6552 9.03247 12.6973 8.93998C12.7393 8.8475 12.7997 8.76451 12.8748 8.69607C13.3736 8.1889 13.8039 7.61864 14.1548 6.99982C13.7875 6.35535 13.3339 5.76405 12.8066 5.24232C11.466 3.92044 9.84913 3.24982 7.99976 3.24982C7.79038 3.24982 7.58101 3.25857 7.37476 3.27607C7.27537 3.28672 7.17485 3.27739 7.07911 3.24863C6.98338 3.21988 6.89436 3.17228 6.81728 3.10862C6.74021 3.04497 6.67664 2.96655 6.6303 2.87798C6.58397 2.78941 6.55581 2.69247 6.54748 2.59285C6.53914 2.49324 6.55081 2.39297 6.58178 2.29793C6.61276 2.20289 6.66242 2.115 6.72785 2.03943C6.79328 1.96385 6.87315 1.90212 6.96278 1.85786C7.05241 1.8136 7.14998 1.78771 7.24976 1.78169C7.49538 1.76044 7.74976 1.74982 7.99976 1.74982C10.2498 1.74982 12.2891 2.60419 13.9054 4.21982C15.1148 5.42919 15.6623 6.64482 15.6854 6.69544C15.728 6.79131 15.7502 6.89501 15.7505 6.99993C15.7509 7.10486 15.7293 7.20869 15.6873 7.30482Z" fill="#7F8FA8"/>
</svg>
