<svg width="13" height="9" viewBox="0 0 14 10" fill="none" xmlns="http://www.w3.org/2000/svg">
<path d="M0.75 1C0.75 0.801088 0.829018 0.610322 0.96967 0.46967C1.11032 0.329018 1.30109 0.25 1.5 0.25H12.5C12.6989 0.25 12.8897 0.329018 13.0303 0.46967C13.171 0.610322 13.25 0.801088 13.25 1C13.25 1.19891 13.171 1.38968 13.0303 1.53033C12.8897 1.67098 12.6989 1.75 12.5 1.75H1.5C1.30109 1.75 1.11032 1.67098 0.96967 1.53033C0.829018 1.38968 0.75 1.19891 0.75 1ZM12.5 2.75H1.5C1.30109 2.75 1.11032 2.82902 0.96967 2.96967C0.829018 3.11032 0.75 3.30109 0.75 3.5C0.75 3.69891 0.829018 3.88968 0.96967 4.03033C1.11032 4.17098 1.30109 4.25 1.5 4.25H12.5C12.6989 4.25 12.8897 4.17098 13.0303 4.03033C13.171 3.88968 13.25 3.69891 13.25 3.5C13.25 3.30109 13.171 3.11032 13.0303 2.96967C12.8897 2.82902 12.6989 2.75 12.5 2.75ZM12.5 5.25H1.5C1.30109 5.25 1.11032 5.32902 0.96967 5.46967C0.829018 5.61032 0.75 5.80109 0.75 6C0.75 6.19891 0.829018 6.38968 0.96967 6.53033C1.11032 6.67098 1.30109 6.75 1.5 6.75H12.5C12.6989 6.75 12.8897 6.67098 13.0303 6.53033C13.171 6.38968 13.25 6.19891 13.25 6C13.25 5.80109 13.171 5.61032 13.0303 5.46967C12.8897 5.32902 12.6989 5.25 12.5 5.25ZM12.5 7.75H1.5C1.30109 7.75 1.11032 7.82902 0.96967 7.96967C0.829018 8.11032 0.75 8.30109 0.75 8.5C0.75 8.69891 0.829018 8.88968 0.96967 9.03033C1.11032 9.17098 1.30109 9.25 1.5 9.25H12.5C12.6989 9.25 12.8897 9.17098 13.0303 9.03033C13.171 8.88968 13.25 8.69891 13.25 8.5C13.25 8.30109 13.171 8.11032 13.0303 7.96967C12.8897 7.82902 12.6989 7.75 12.5 7.75Z" fill=""/>
</svg>
