<svg width="9" height="15" viewBox="0 0 9 15" fill="none" xmlns="http://www.w3.org/2000/svg">
<path d="M8.16344 13.2741C8.33955 13.4502 8.4385 13.6891 8.4385 13.9382C8.4385 14.1873 8.33955 14.4261 8.16343 14.6023C7.98731 14.7784 7.74844 14.8773 7.49937 14.8773C7.2503 14.8773 7.01143 14.7784 6.83531 14.6023L0.585309 8.35225C0.497909 8.26516 0.428563 8.16166 0.381245 8.04771C0.333927 7.93375 0.30957 7.81158 0.30957 7.68819C0.30957 7.5648 0.333927 7.44263 0.381245 7.32867C0.428563 7.21472 0.497909 7.11123 0.585309 7.02413L6.83531 0.774128C7.01143 0.598008 7.2503 0.499065 7.49937 0.499065C7.74844 0.499065 7.98731 0.598008 8.16344 0.774128C8.33955 0.950249 8.4385 1.18912 8.4385 1.43819C8.4385 1.68726 8.33955 1.92613 8.16344 2.10225L2.57828 7.68741L8.16344 13.2741Z" fill="#7F8FA8"/>
</svg>
