<svg  viewBox="0 0 21 22" fill="none" xmlns="http://www.w3.org/2000/svg">
<path fill-rule="evenodd" clip-rule="evenodd" d="M9.98428 1.16971C10.2735 0.895781 10.7265 0.895781 11.0157 1.16971C13.0325 3.07968 15.7538 4.25001 18.75 4.25001C18.7977 4.25001 18.8453 4.24972 18.8928 4.24913C19.2202 4.24506 19.5123 4.45381 19.6146 4.76482C20.0271 6.01958 20.25 7.35954 20.25 8.75006C20.25 14.6921 16.1859 19.683 10.6869 21.0983C10.5643 21.1299 10.4357 21.1299 10.3131 21.0983C4.81406 19.683 0.75 14.6921 0.75 8.75006C0.75 7.35954 0.972873 6.01958 1.38541 4.76482C1.48767 4.45381 1.77984 4.24506 2.10721 4.24913C2.15473 4.24972 2.20233 4.25001 2.25 4.25001C5.24624 4.25001 7.96752 3.07968 9.98428 1.16971ZM2.65599 5.74367C2.3915 6.69991 2.25 7.70793 2.25 8.75006C2.25 13.9235 5.7428 18.2831 10.5 19.5958C15.2572 18.2831 18.75 13.9235 18.75 8.75006C18.75 7.70792 18.6085 6.69992 18.344 5.74367C15.3566 5.65016 12.6272 4.52832 10.5 2.72143C8.37277 4.52832 5.64341 5.65016 2.65599 5.74367ZM13.6248 8.2537C13.8989 8.56425 13.8694 9.03821 13.5588 9.31231C12.1034 10.5969 10.9835 12.2513 10.3459 14.1271C10.2624 14.3725 10.0583 14.5574 9.80591 14.6162C9.55352 14.675 9.28867 14.5993 9.10543 14.4161L6.96967 12.2803C6.67678 11.9874 6.67678 11.5126 6.96967 11.2197C7.26256 10.9268 7.73744 10.9268 8.03033 11.2197L9.35697 12.5463C10.1072 10.8701 11.2083 9.38624 12.5662 8.1877C12.8768 7.9136 13.3507 7.94315 13.6248 8.2537Z" fill="#0D7752"/>
</svg>
