<svg width="48" height="48" viewBox="0 0 48 48" fill="none" xmlns="http://www.w3.org/2000/svg">
<path opacity="0.4" d="M48 24C48 37.2548 37.2548 48 24 48C10.7452 48 0 37.2548 0 24C0 10.7452 10.7452 0 24 0C37.2548 0 48 10.7452 48 24ZM7.2 24C7.2 33.2784 14.7216 40.8 24 40.8C33.2784 40.8 40.8 33.2784 40.8 24C40.8 14.7216 33.2784 7.2 24 7.2C14.7216 7.2 7.2 14.7216 7.2 24Z" fill="#35426F"/>
<path d="M24 -1.04907e-06C20.8483 -9.11307e-07 17.7274 0.620776 14.8156 1.82689C11.9038 3.033 9.25804 4.80083 7.02944 7.02944C4.80083 9.25804 3.033 11.9038 1.82689 14.8156C0.620777 17.7274 -1.32461e-06 20.8483 -1.04907e-06 24L7.2 24C7.2 21.7938 7.63454 19.6092 8.47882 17.5709C9.3231 15.5326 10.5606 13.6806 12.1206 12.1206C13.6806 10.5606 15.5326 9.3231 17.5709 8.47882C19.6092 7.63454 21.7938 7.2 24 7.2L24 -1.04907e-06Z" fill="#35426F"/>
</svg>
