<svg width="48" height="48" viewBox="0 0 48 48" fill="none" xmlns="http://www.w3.org/2000/svg">
<path opacity="0.4" d="M48 24C48 37.2548 37.2548 48 24 48C10.7452 48 0 37.2548 0 24C0 10.7452 10.7452 0 24 0C37.2548 0 48 10.7452 48 24ZM7.2 24C7.2 33.2784 14.7216 40.8 24 40.8C33.2784 40.8 40.8 33.2784 40.8 24C40.8 14.7216 33.2784 7.2 24 7.2C14.7216 7.2 7.2 14.7216 7.2 24Z" fill="white"/>
<path d="M24 48C27.1517 48 30.2726 47.3792 33.1844 46.1731C36.0962 44.967 38.742 43.1992 40.9706 40.9706C43.1992 38.742 44.967 36.0962 46.1731 33.1844C47.3792 30.2726 48 27.1517 48 24L40.8 24C40.8 26.2062 40.3655 28.3908 39.5212 30.4291C38.6769 32.4673 37.4394 34.3194 35.8794 35.8794C34.3194 37.4394 32.4673 38.6769 30.4291 39.5212C28.3908 40.3655 26.2062 40.8 24 40.8L24 48Z" fill="white"/>
</svg>
