<svg width="48" height="48" viewBox="0 0 48 48" fill="none" xmlns="http://www.w3.org/2000/svg">
<path opacity="0.4" d="M48 24C48 37.2548 37.2548 48 24 48C10.7452 48 0 37.2548 0 24C0 10.7452 10.7452 0 24 0C37.2548 0 48 10.7452 48 24ZM7.2 24C7.2 33.2784 14.7216 40.8 24 40.8C33.2784 40.8 40.8 33.2784 40.8 24C40.8 14.7216 33.2784 7.2 24 7.2C14.7216 7.2 7.2 14.7216 7.2 24Z" fill="white"/>
<path d="M48 24C48 20.8483 47.3792 17.7274 46.1731 14.8156C44.967 11.9038 43.1992 9.25804 40.9706 7.02944C38.742 4.80083 36.0962 3.033 33.1844 1.82689C30.2726 0.620778 27.1517 -1.37766e-07 24 0L24 7.2C26.2062 7.2 28.3908 7.63455 30.4291 8.47882C32.4674 9.3231 34.3194 10.5606 35.8794 12.1206C37.4394 13.6806 38.6769 15.5326 39.5212 17.5709C40.3655 19.6092 40.8 21.7938 40.8 24H48Z" fill="white"/>
</svg>
