<svg  viewBox="0 0 18 18" fill="none" xmlns="http://www.w3.org/2000/svg">
<path fill-rule="evenodd" clip-rule="evenodd" d="M9 2.125C5.20304 2.125 2.125 5.20304 2.125 9C2.125 12.797 5.20304 15.875 9 15.875C12.797 15.875 15.875 12.797 15.875 9C15.875 5.20304 12.797 2.125 9 2.125ZM0.875 9C0.875 4.51269 4.51269 0.875 9 0.875C13.4873 0.875 17.125 4.51269 17.125 9C17.125 13.4873 13.4873 17.125 9 17.125C4.51269 17.125 0.875 13.4873 0.875 9ZM11.604 6.71142C11.8324 6.97021 11.8078 7.36517 11.549 7.59359C10.3362 8.66409 9.40291 10.0428 8.87154 11.606C8.80204 11.8104 8.63191 11.9645 8.42159 12.0135C8.21127 12.0625 7.99056 11.9994 7.83786 11.8467L6.05806 10.0669C5.81398 9.82286 5.81398 9.42714 6.05806 9.18306C6.30214 8.93898 6.69786 8.93898 6.94194 9.18306L8.04747 10.2886C8.67266 8.89177 9.59024 7.6552 10.7219 6.65641C10.9806 6.428 11.3756 6.45262 11.604 6.71142Z" fill="#0D7752"/>
</svg>
