<svg width="36" height="28" viewBox="0 0 36 28" fill="none" xmlns="http://www.w3.org/2000/svg">
<path fill-rule="evenodd" clip-rule="evenodd" d="M15.5 2.75C11.3579 2.75 8 6.10786 8 10.25C8 10.7276 8.04448 11.1936 8.12918 11.6446C8.24483 12.2602 7.88689 12.8664 7.29192 13.0625C4.79771 13.8845 3 16.2339 3 19C3 22.4518 5.79822 25.25 9.25 25.25H28C30.7614 25.25 33 23.0114 33 20.25C33 18.1158 31.6624 16.291 29.7754 15.574C29.1418 15.3333 28.8155 14.6314 29.0399 13.9918C29.1756 13.6048 29.25 13.1874 29.25 12.75C29.25 10.6789 27.5711 9 25.5 9C25.0938 9 24.7049 9.06415 24.3417 9.18194C24.0154 9.28779 23.6598 9.25483 23.3585 9.09079C23.0571 8.92675 22.8365 8.64605 22.7482 8.3145C21.8949 5.1096 18.9714 2.75 15.5 2.75ZM5.5 10.25C5.5 4.72715 9.97715 0.25 15.5 0.25C19.7133 0.25 23.3155 2.8547 24.7888 6.54013C25.0225 6.51361 25.2598 6.5 25.5 6.5C28.9518 6.5 31.75 9.29822 31.75 12.75C31.75 13.0765 31.7249 13.3977 31.6763 13.7116C33.9574 14.9969 35.5 17.4421 35.5 20.25C35.5 24.3921 32.1421 27.75 28 27.75H9.25C4.41751 27.75 0.5 23.8325 0.5 19C0.5 15.4948 2.56045 12.4734 5.53373 11.0765C5.51138 10.8037 5.5 10.5281 5.5 10.25ZM17.1161 9.36612C17.6043 8.87796 18.3957 8.87796 18.8839 9.36612L23.8839 14.3661C24.372 14.8543 24.372 15.6457 23.8839 16.1339C23.3957 16.622 22.6043 16.622 22.1161 16.1339L19.25 13.2678L19.25 21.5C19.25 22.1904 18.6904 22.75 18 22.75C17.3096 22.75 16.75 22.1904 16.75 21.5L16.75 13.2678L13.8839 16.1339C13.3957 16.622 12.6043 16.622 12.1161 16.1339C11.628 15.6457 11.628 14.8543 12.1161 14.3661L17.1161 9.36612Z" fill="#4112FF"/>
</svg>
