<svg viewBox="0 0 18 17" fill="none" xmlns="http://www.w3.org/2000/svg">
<path fill-rule="evenodd" clip-rule="evenodd" d="M10.0827 2.37779C9.60171 1.54399 8.39831 1.54399 7.91728 2.37779L1.78867 13.0007C1.3079 13.834 1.90933 14.8754 2.8714 14.8754H15.1286C16.0907 14.8754 16.6921 13.834 16.2113 13.0007L10.0827 2.37779ZM6.83455 1.75314C7.79662 0.0855437 10.2034 0.0855431 11.1655 1.75314L17.2941 12.3761C18.2556 14.0427 17.0528 16.1254 15.1286 16.1254H2.8714C0.947258 16.1254 -0.255599 14.0427 0.705939 12.3761L6.83455 1.75314ZM9.00001 6.12536C9.34519 6.12536 9.62501 6.40518 9.62501 6.75036V9.87536C9.62501 10.2205 9.34519 10.5004 9.00001 10.5004C8.65483 10.5004 8.37501 10.2205 8.37501 9.87536V6.75036C8.37501 6.40518 8.65483 6.12536 9.00001 6.12536ZM8.37501 12.3754C8.37501 12.0302 8.65483 11.7504 9.00001 11.7504H9.00626C9.35144 11.7504 9.63126 12.0302 9.63126 12.3754V12.3816C9.63126 12.7268 9.35144 13.0066 9.00626 13.0066H9.00001C8.65483 13.0066 8.37501 12.7268 8.37501 12.3816V12.3754Z" fill="#956404"/>
</svg>
