<svg width="3761" height="885" viewBox="0 0 3761 885" fill="none" xmlns="http://www.w3.org/2000/svg">
<g clip-path="url(#clip0_1_357)">
<path d="M2609.23 338.367C2609.23 319.668 2624.44 304.484 2643.12 304.484C2661.83 304.484 2677 319.668 2677 338.367C2677 357.074 2661.83 372.238 2643.12 372.238C2624.44 372.238 2609.23 357.074 2609.23 338.367Z" fill="white"/>
<path d="M1528.7 248.635C1528.7 227.167 1524.55 211.248 1516.25 200.877C1507.96 190.52 1495.37 185.336 1478.46 185.336H1460.47V316.581H1474.24C1493.01 316.581 1506.79 311.002 1515.55 299.831C1524.31 288.672 1528.7 271.599 1528.7 248.635ZM1592.85 246.399C1592.85 285.492 1582.33 315.626 1561.31 336.77C1540.3 357.929 1510.75 368.508 1472.67 368.508H1398.65V134.21H1477.83C1514.55 134.21 1542.91 143.838 1562.89 163.059C1582.86 182.297 1592.85 210.062 1592.85 246.399Z" fill="white"/>
<path d="M1797.86 368.509H1856.75V133.229H1797.86V368.509Z" fill="white"/>
<path d="M1939.48 280.748C1939.48 295.752 1941.43 307.193 1945.34 315.056C1949.27 322.92 1955.83 326.855 1965.07 326.855C1974.21 326.855 1980.66 322.92 1984.43 315.056C1988.19 307.193 1990.07 295.752 1990.07 280.748C1990.07 265.828 1988.17 254.572 1984.35 246.972C1980.54 239.354 1974.01 235.537 1964.77 235.537C1955.74 235.537 1949.27 239.335 1945.34 246.887C1941.43 254.441 1939.48 265.732 1939.48 280.748ZM2050.02 280.748C2050.02 309.322 2042.52 331.623 2027.49 347.606C2012.5 363.597 1991.49 371.588 1964.48 371.588C1938.57 371.588 1917.96 363.412 1902.66 347.062C1887.32 330.714 1879.67 308.616 1879.67 280.748C1879.67 252.253 1887.17 230.115 1902.2 214.332C1917.21 198.55 1938.26 190.657 1965.38 190.657C1982.14 190.657 1996.96 194.311 2009.81 201.612C2022.66 208.921 2032.58 219.379 2039.55 233.008C2046.52 246.62 2050.02 262.539 2050.02 280.748Z" fill="white"/>
<path d="M2073.4 368.509H2132.3V193.743H2073.4V368.509Z" fill="white"/>
<path d="M2073.4 172.609H2132.3V133.229H2073.4V172.609Z" fill="white"/>
<path d="M2251.62 323.93C2259.57 323.93 2269.04 321.91 2280.11 317.909V361.875C2272.16 365.356 2264.6 367.861 2257.43 369.351C2250.26 370.846 2241.83 371.588 2232.21 371.588C2212.43 371.588 2198.16 366.624 2189.42 356.697C2180.7 346.782 2176.33 331.538 2176.33 310.978V238.935H2155.7V193.754H2176.33V149.136L2235.67 138.808V193.754H2273.25V238.935H2235.67V306.959C2235.67 318.268 2241 323.93 2251.62 323.93Z" fill="white"/>
<path d="M2387.94 323.93C2395.89 323.93 2405.36 321.91 2416.42 317.909V361.875C2408.48 365.356 2400.92 367.861 2393.75 369.351C2386.56 370.846 2378.17 371.588 2368.51 371.588C2348.74 371.588 2334.47 366.624 2325.75 356.697C2317.02 346.782 2312.65 331.538 2312.65 310.978V238.935H2292V193.754H2312.65V148.454L2371.99 138.808V193.754H2409.58V238.935H2371.99V306.959C2371.99 318.268 2377.3 323.93 2387.94 323.93Z" fill="white"/>
<path d="M2490.74 259.458C2491.53 249.891 2494.26 242.875 2498.94 238.397C2503.63 233.924 2509.42 231.687 2516.33 231.687C2523.87 231.687 2529.88 234.204 2534.32 239.258C2538.8 244.288 2541.15 251.021 2541.33 259.458H2490.74ZM2573.8 211.259C2559.78 197.528 2539.93 190.662 2514.23 190.662C2487.22 190.662 2466.44 198.55 2451.86 214.338C2437.31 230.12 2430.03 252.767 2430.03 282.278C2430.03 310.864 2437.9 332.902 2453.61 348.373C2469.34 363.849 2491.39 371.587 2519.81 371.587C2533.46 371.587 2545.2 370.655 2555.05 368.807C2564.82 366.971 2574.29 363.658 2583.49 358.867L2574.44 319.487C2567.77 322.214 2561.41 324.314 2555.42 325.695C2546.73 327.704 2537.24 328.715 2526.88 328.715C2515.52 328.715 2506.56 325.94 2500 320.385C2493.43 314.829 2489.93 307.163 2489.52 297.391H2594.8V270.57C2594.8 244.754 2587.79 224.976 2573.8 211.259Z" fill="white"/>
<path d="M1671.01 259.458C1671.82 249.891 1674.55 242.875 1679.22 238.397C1683.9 233.924 1689.68 231.687 1696.62 231.687C1704.15 231.687 1710.15 234.204 1714.61 239.258C1719.09 244.288 1721.42 251.021 1721.62 259.458H1671.01ZM1754.07 211.259C1740.07 197.528 1720.22 190.662 1694.5 190.662C1667.5 190.662 1646.71 198.55 1632.16 214.338C1617.6 230.12 1610.31 252.767 1610.31 282.278C1610.31 310.864 1618.17 332.902 1633.89 348.373C1649.6 363.849 1671.67 371.587 1700.09 371.587C1713.73 371.587 1725.48 370.655 1735.33 368.807C1745.1 366.971 1754.58 363.658 1763.77 358.867L1754.72 319.487C1748.04 322.214 1741.69 324.314 1735.7 325.695C1727.02 327.704 1717.51 328.715 1707.16 328.715C1695.82 328.715 1686.85 325.94 1680.28 320.385C1673.7 314.829 1670.21 307.163 1669.81 297.391H1775.08V270.57C1775.08 244.754 1768.08 224.976 1754.07 211.259Z" fill="white"/>
<path d="M3252.93 295.041C3263.11 295.317 3273.6 294.641 3284.26 293.079C3225.89 278.972 3206.95 225.205 3243.31 162.347C3279.65 99.489 3359.03 48.2329 3431.65 37.588C3423.12 35.5549 3413.75 34.3349 3403.59 34.0598C3323.86 31.9607 3225.46 88.7126 3183.83 160.786C3142.2 232.866 3173.12 293.009 3252.93 295.041Z" fill="white"/>
<path d="M3504.53 426.791C3510.03 418.179 3514.78 408.82 3518.91 398.923C3476.73 441.705 3420.94 430.246 3385.75 366.713C3350.57 303.181 3347.64 208.657 3375.92 140.926C3369.75 147.163 3363.85 154.554 3358.43 163.16C3315.58 230.424 3313.55 343.994 3353.89 416.822C3394.16 489.643 3461.61 494.055 3504.53 426.791Z" fill="white"/>
<path d="M3745.85 270.768C3740.96 261.822 3735.13 253.071 3728.48 244.664C3745.44 302.229 3708.35 345.556 3635.73 345.556C3563.12 345.556 3479.05 302.301 3433.48 244.664C3435.99 253.071 3439.58 261.822 3444.47 270.768C3482.5 340.88 3580.88 397.702 3664.08 397.702C3747.26 397.769 3783.88 340.952 3745.85 270.768Z" fill="white"/>
<path d="M966.02 185.12C966.02 267.95 898.897 335.103 816.048 335.103C737.635 335.103 673.317 274.955 666.643 198.288C675.612 199.221 684.2 201.098 692.463 203.784C701.458 263.951 753.343 310.111 816.048 310.111C885.048 310.111 941.002 254.131 941.002 185.12C941.002 116.108 885.048 60.1336 816.048 60.1336C749.595 60.1336 695.293 111.97 691.327 177.411C683.285 175.348 675.044 173.913 666.523 173.183C672.659 95.9129 737.241 35.1423 816.048 35.1423C898.897 35.1423 966.02 102.3 966.02 185.12Z" fill="white"/>
<path d="M778.298 330.306C774.338 395.742 719.996 447.567 653.625 447.567C584.565 447.567 528.671 391.627 528.671 322.586C528.671 267.15 564.736 220.14 614.721 203.784C615.624 197.702 616.096 191.47 616.096 185.12C616.096 182.518 616.006 179.958 615.88 177.411C551.311 194.149 503.635 252.804 503.635 322.586C503.635 405.411 570.75 472.575 653.625 472.575C732.379 472.575 796.985 411.787 803.06 334.534C794.587 333.805 786.305 332.376 778.298 330.306ZM653.625 197.611C716.246 197.611 768.168 243.755 777.198 303.957C785.426 306.63 794.036 308.485 802.959 309.442C796.279 232.764 731.948 172.633 653.625 172.633C649.23 172.633 644.906 172.818 640.655 173.183C640.93 177.118 641.103 181.089 641.103 185.12C641.103 189.556 640.876 193.964 640.535 198.288C644.823 197.84 649.176 197.611 653.625 197.611Z" fill="white"/>
<path d="M491.107 310.111C428.468 310.111 376.533 263.951 367.529 203.784C359.277 201.098 350.682 199.221 341.711 198.288C348.392 274.955 412.705 335.103 491.107 335.103C495.508 335.103 499.837 334.912 504.107 334.528C503.814 330.617 503.635 326.622 503.635 322.586C503.635 318.167 503.867 313.753 504.227 309.442C499.92 309.879 495.538 310.111 491.107 310.111ZM491.107 35.1423C412.3 35.1423 347.738 95.9129 341.641 173.183C350.121 173.913 358.346 175.348 366.415 177.411C370.339 111.97 424.683 60.1336 491.107 60.1336C560.16 60.1336 616.096 116.108 616.096 185.12C616.096 240.556 580.009 287.59 530.023 303.957C529.132 310.015 528.671 316.253 528.671 322.586C528.671 325.188 528.69 327.765 528.874 330.306C593.432 313.574 641.103 254.915 641.103 185.12C641.103 102.3 573.975 35.1423 491.107 35.1423Z" fill="white"/>
<path d="M478.149 334.528C472.072 411.787 407.484 472.575 328.689 472.575C245.835 472.575 178.698 405.411 178.698 322.586C178.698 252.804 226.375 194.149 290.958 177.411C291.07 179.958 291.157 182.518 291.157 185.12C291.157 191.47 290.683 197.702 289.78 203.784C239.806 220.14 203.754 267.15 203.754 322.586C203.754 391.627 259.623 447.567 328.689 447.567C395.077 447.567 449.427 395.742 453.392 330.306C461.375 332.376 469.681 333.805 478.149 334.528ZM315.592 198.288C315.955 193.964 316.178 189.556 316.178 185.12C316.178 181.089 316.007 177.118 315.73 173.183C319.984 172.818 324.307 172.633 328.689 172.633C407.012 172.633 471.421 232.764 478.095 309.442C469.131 308.485 460.485 306.63 452.273 303.957C443.245 243.755 391.316 197.611 328.689 197.611C324.257 197.611 319.89 197.84 315.592 198.288Z" fill="white"/>
<path d="M316.178 185.12C316.178 102.3 249.054 35.1423 166.194 35.1423C83.3995 35.1423 16.2578 102.3 16.2578 185.12C16.2578 267.95 83.3995 335.103 166.194 335.103C170.585 335.103 174.883 334.912 179.169 334.534C178.878 330.617 178.698 326.622 178.698 322.586C178.698 318.167 178.929 313.753 179.284 309.442C174.976 309.879 170.62 310.111 166.194 310.111C97.1835 310.111 41.2276 254.131 41.2276 185.12C41.2276 116.108 97.1835 60.1336 166.194 60.1336C235.245 60.1336 291.157 116.108 291.157 185.12C291.157 240.556 255.073 287.59 205.089 303.957C204.209 310.015 203.754 316.253 203.754 322.586C203.754 325.188 203.771 327.765 203.935 330.306C268.511 313.574 316.178 254.915 316.178 185.12Z" fill="white"/>
<path d="M1145.81 -0.00341797H1157.1V499.971H1145.81V-0.00341797Z" fill="white"/>
<path d="M2898 -0.00341797H2909.3V499.971H2898V-0.00341797Z" fill="white"/>
<path d="M943.112 836.234H934.26L918.651 784.083C917.93 781.77 917.077 778.862 916.159 775.358C915.241 771.856 914.782 769.74 914.715 769.013C913.929 773.706 912.682 778.862 911.043 784.414L895.959 836.234H887.106L866.579 758.371H876.087L888.286 806.491C889.992 813.233 891.237 819.314 891.958 824.799C892.943 818.322 894.32 811.977 896.156 805.763L909.994 758.438H919.504L933.998 806.225C935.702 811.712 937.145 817.926 938.26 824.866C938.916 819.842 940.228 813.696 942.064 806.424L954.196 758.438H963.706L943.047 836.301L943.112 836.234Z" fill="white"/>
<path d="M1024.57 806.954C1024.57 816.472 1022.21 823.875 1017.42 829.228C1012.63 834.583 1006.07 837.226 997.745 837.226C992.564 837.226 987.972 835.97 983.972 833.525C979.971 831.079 976.89 827.576 974.66 822.948C972.496 818.389 971.381 813.035 971.381 806.887C971.381 797.369 973.741 789.967 978.464 784.679C983.186 779.39 989.743 776.746 998.139 776.746C1006.53 776.746 1012.7 779.457 1017.48 784.876C1022.27 790.298 1024.63 797.634 1024.63 806.954H1024.57ZM980.43 806.954C980.43 814.422 981.939 820.108 984.89 824.007C987.842 827.907 992.17 829.89 997.942 829.89C1003.71 829.89 1008.04 827.972 1010.99 824.072C1013.94 820.173 1015.45 814.489 1015.45 807.019C1015.45 799.55 1013.94 793.932 1010.99 790.099C1008.04 786.264 1003.65 784.349 997.81 784.349C991.973 784.349 987.71 786.264 984.825 790.032C981.874 793.867 980.43 799.485 980.43 807.019V806.954Z" fill="white"/>
<path d="M1066.33 776.746C1068.89 776.746 1071.18 776.945 1073.28 777.407L1072.04 785.605C1069.61 785.075 1067.51 784.811 1065.67 784.811C1061.02 784.811 1056.95 786.727 1053.67 790.561C1050.39 794.394 1048.69 799.154 1048.69 804.904V836.234H1039.9V777.87H1047.11L1048.1 788.711H1048.49C1050.66 784.876 1053.21 781.969 1056.23 779.919C1059.25 777.87 1062.59 776.813 1066.2 776.813L1066.33 776.746Z" fill="white"/>
<path d="M1092.91 836.234H1084.12V753.347H1092.91V836.234Z" fill="white"/>
<path d="M1150.88 828.373H1150.42C1146.35 834.322 1140.32 837.297 1132.25 837.297C1124.71 837.297 1118.81 834.72 1114.61 829.497C1110.41 824.276 1108.32 816.873 1108.32 807.223C1108.32 797.573 1110.41 790.102 1114.68 784.815C1118.87 779.527 1124.78 776.818 1132.32 776.818C1139.86 776.818 1146.22 779.659 1150.42 785.476H1151.08L1150.68 781.246L1150.49 777.147V753.418H1159.27V836.306H1152.12L1150.94 828.507L1150.88 828.373ZM1133.37 829.895C1139.34 829.895 1143.66 828.241 1146.42 824.936C1149.17 821.633 1150.49 816.343 1150.49 809.006V807.156C1150.49 798.894 1149.11 793.012 1146.42 789.443C1143.66 785.874 1139.34 784.155 1133.37 784.155C1128.25 784.155 1124.32 786.137 1121.56 790.169C1118.81 794.201 1117.5 799.886 1117.5 807.223C1117.5 814.56 1118.87 820.31 1121.56 824.078C1124.25 827.845 1128.25 829.763 1133.5 829.763L1133.37 829.895Z" fill="white"/>
<path d="M1225.06 836.238L1214.43 801.998C1213.78 799.884 1212.53 795.124 1210.7 787.72H1210.3C1208.93 793.935 1207.68 798.76 1206.63 802.13L1195.68 836.238H1185.51L1169.71 777.874H1178.89C1182.63 792.547 1185.45 803.717 1187.41 811.384C1189.38 819.052 1190.5 824.208 1190.76 826.852H1191.15C1191.55 824.802 1192.14 822.224 1193.05 818.985C1193.91 815.747 1194.7 813.235 1195.28 811.318L1205.91 777.807H1215.42L1225.78 811.318C1227.75 817.399 1229.06 822.554 1229.78 826.72H1230.17C1230.31 825.464 1230.7 823.479 1231.29 820.836C1231.88 818.192 1235.55 803.849 1242.31 777.874H1251.42L1235.42 836.238H1224.99H1225.06Z" fill="white"/>
<path d="M1261.19 761.994C1261.19 759.945 1261.71 758.492 1262.69 757.567C1263.68 756.642 1264.92 756.179 1266.37 756.179C1267.81 756.179 1268.99 756.642 1270.04 757.632C1271.09 758.624 1271.55 760.079 1271.55 762.061C1271.55 764.044 1271.02 765.498 1270.04 766.491C1268.99 767.481 1267.81 767.943 1266.37 767.943C1264.86 767.943 1263.68 767.481 1262.69 766.491C1261.71 765.498 1261.19 764.044 1261.19 762.061V761.994ZM1270.7 836.223H1261.91V777.859H1270.7V836.223Z" fill="white"/>
<path d="M1328.74 828.373H1328.28C1324.21 834.322 1318.18 837.297 1310.11 837.297C1302.57 837.297 1296.67 834.72 1292.47 829.497C1288.27 824.276 1286.17 816.873 1286.17 807.223C1286.17 797.573 1288.27 790.102 1292.53 784.815C1296.73 779.527 1302.64 776.818 1310.18 776.818C1317.72 776.818 1324.08 779.659 1328.28 785.476H1328.93L1328.54 781.246L1328.34 777.147V753.418H1337.13V836.306H1329.98L1328.8 828.507L1328.74 828.373ZM1311.23 829.895C1317.19 829.895 1321.52 828.241 1324.28 824.936C1327.03 821.633 1328.34 816.343 1328.34 809.006V807.156C1328.34 798.894 1326.97 793.012 1324.28 789.443C1321.52 785.874 1317.19 784.155 1311.23 784.155C1306.11 784.155 1302.17 786.137 1299.42 790.169C1296.67 794.201 1295.36 799.886 1295.36 807.223C1295.36 814.56 1296.73 820.31 1299.42 824.078C1302.11 827.845 1306.11 829.763 1311.36 829.763L1311.23 829.895Z" fill="white"/>
<path d="M1380.08 837.299C1371.49 837.299 1364.8 834.655 1359.81 829.432C1354.83 824.212 1352.4 816.875 1352.4 807.554C1352.4 798.234 1354.7 790.699 1359.29 785.147C1363.88 779.594 1370.04 776.818 1377.78 776.818C1385.06 776.818 1390.77 779.198 1395.03 784.023C1399.29 788.848 1401.39 795.193 1401.39 803.059V808.678H1361.52C1361.71 815.552 1363.42 820.708 1366.7 824.277C1369.98 827.846 1374.57 829.631 1380.47 829.631C1386.7 829.631 1392.86 828.308 1398.96 825.665V833.531C1395.88 834.852 1392.93 835.844 1390.18 836.438C1387.42 837.033 1384.08 837.299 1380.14 837.299H1380.08ZM1377.72 784.155C1373.06 784.155 1369.39 785.675 1366.57 788.716C1363.75 791.756 1362.17 795.986 1361.65 801.408H1391.95C1391.95 795.854 1390.7 791.559 1388.27 788.584C1385.78 785.61 1382.31 784.155 1377.72 784.155Z" fill="white"/>
<path d="M1469.54 836.234H1460.56V766.435H1436.1V758.371H1494.01V766.435H1469.54V836.234Z" fill="white"/>
<path d="M1521.76 837.299C1513.17 837.299 1506.48 834.655 1501.5 829.432C1496.52 824.212 1494.09 816.875 1494.09 807.554C1494.09 798.234 1496.39 790.699 1500.97 785.147C1505.57 779.594 1511.73 776.818 1519.47 776.818C1526.75 776.818 1532.45 779.198 1536.72 784.023C1540.98 788.848 1543.08 795.193 1543.08 803.059V808.678H1503.2C1503.4 815.552 1505.11 820.708 1508.39 824.277C1511.66 827.846 1516.26 829.631 1522.16 829.631C1528.39 829.631 1534.55 828.308 1540.65 825.665V833.531C1537.57 834.852 1534.62 835.844 1531.86 836.438C1529.11 837.033 1525.76 837.299 1521.83 837.299H1521.76ZM1519.4 784.155C1514.75 784.155 1511.07 785.675 1508.26 788.716C1505.43 791.756 1503.86 795.986 1503.34 801.408H1533.63C1533.63 795.854 1532.39 791.559 1529.96 788.584C1527.47 785.61 1523.99 784.155 1519.4 784.155Z" fill="white"/>
<path d="M1581.17 837.299C1572.78 837.299 1566.29 834.72 1561.7 829.499C1557.1 824.277 1554.81 816.94 1554.81 807.422C1554.81 797.904 1557.17 790.104 1561.83 784.817C1566.48 779.529 1573.17 776.818 1581.77 776.818C1584.52 776.818 1587.34 777.149 1590.09 777.744C1592.85 778.338 1595.08 779.066 1596.65 779.86L1593.96 787.394C1591.99 786.6 1589.9 785.941 1587.6 785.478C1585.3 784.949 1583.27 784.685 1581.5 784.685C1569.76 784.685 1563.86 792.219 1563.86 807.355C1563.86 814.495 1565.3 820.046 1568.19 823.881C1571.07 827.714 1575.34 829.631 1580.98 829.631C1585.83 829.631 1590.75 828.574 1595.8 826.458V834.257C1591.93 836.307 1587.08 837.299 1581.17 837.299Z" fill="white"/>
<path d="M1649.2 836.24V798.498C1649.2 793.738 1648.15 790.169 1645.98 787.856C1643.82 785.543 1640.47 784.352 1635.88 784.352C1629.78 784.352 1625.32 786.006 1622.57 789.376C1619.75 792.681 1618.37 798.167 1618.37 805.768V836.306H1609.58V753.418H1618.37V778.47C1618.37 781.511 1618.24 783.956 1617.98 786.006H1618.5C1620.21 783.23 1622.7 780.982 1625.85 779.395C1629 777.809 1632.67 776.95 1636.74 776.95C1643.82 776.95 1649.13 778.669 1652.67 782.039C1656.21 785.411 1657.98 790.831 1657.98 798.232V836.306H1649.2V836.24Z" fill="white"/>
<path d="M1715.55 836.24V798.498C1715.55 793.74 1714.5 790.171 1712.33 787.856C1710.17 785.543 1706.82 784.354 1702.23 784.354C1696.2 784.354 1691.74 786.006 1688.92 789.311C1686.1 792.616 1684.72 798.036 1684.72 805.636V836.24H1675.93V777.876H1683.08L1684.53 785.874H1684.92C1686.69 782.966 1689.25 780.785 1692.46 779.198C1695.68 777.612 1699.28 776.818 1703.28 776.818C1710.23 776.818 1715.48 778.537 1719.02 781.907C1722.56 785.279 1724.33 790.699 1724.33 798.168V836.24H1715.55Z" fill="white"/>
<path d="M1792.37 806.954C1792.37 816.472 1790.01 823.875 1785.22 829.228C1780.43 834.583 1773.87 837.226 1765.54 837.226C1760.36 837.226 1755.77 835.97 1751.77 833.525C1747.77 831.079 1744.69 827.576 1742.46 822.948C1740.29 818.389 1739.18 813.035 1739.18 806.887C1739.18 797.369 1741.54 789.967 1746.26 784.679C1750.98 779.39 1757.54 776.746 1765.94 776.746C1774.33 776.746 1780.5 779.457 1785.28 784.876C1790.07 790.298 1792.43 797.634 1792.43 806.954H1792.37ZM1748.23 806.954C1748.23 814.422 1749.74 820.108 1752.69 824.007C1755.64 827.907 1759.97 829.89 1765.74 829.89C1771.51 829.89 1775.84 827.972 1778.79 824.072C1781.74 820.173 1783.25 814.489 1783.25 807.019C1783.25 799.55 1781.74 793.932 1778.79 790.099C1775.84 786.264 1771.45 784.349 1765.61 784.349C1759.77 784.349 1755.51 786.264 1752.62 790.032C1749.67 793.867 1748.23 799.485 1748.23 807.019V806.954Z" fill="white"/>
<path d="M1816.47 836.234H1807.68V753.347H1816.47V836.234Z" fill="white"/>
<path d="M1885.1 806.954C1885.1 816.472 1882.74 823.875 1877.95 829.228C1873.16 834.583 1866.6 837.226 1858.28 837.226C1853.09 837.226 1848.5 835.97 1844.5 833.525C1840.5 831.079 1837.42 827.576 1835.19 822.948C1833.02 818.389 1831.91 813.035 1831.91 806.887C1831.91 797.369 1834.27 789.967 1838.99 784.679C1843.71 779.39 1850.27 776.746 1858.67 776.746C1867.06 776.746 1873.23 779.457 1878.02 784.876C1882.8 790.298 1885.16 797.634 1885.16 806.954H1885.1ZM1840.96 806.954C1840.96 814.422 1842.47 820.108 1845.42 824.007C1848.37 827.907 1852.7 829.89 1858.47 829.89C1864.24 829.89 1868.57 827.972 1871.52 824.072C1874.47 820.173 1875.98 814.489 1875.98 807.019C1875.98 799.55 1874.47 793.932 1871.52 790.099C1868.57 786.264 1864.18 784.349 1858.34 784.349C1852.5 784.349 1848.24 786.264 1845.36 790.032C1842.4 793.867 1840.96 799.485 1840.96 807.019V806.954Z" fill="white"/>
<path d="M1947.84 777.856V783.474L1937.16 784.73C1938.14 785.986 1938.99 787.572 1939.78 789.62C1940.56 791.669 1940.96 793.917 1940.96 796.429C1940.96 802.179 1938.99 806.674 1935.12 810.111C1931.25 813.548 1925.94 815.201 1919.18 815.201C1917.49 815.201 1915.84 815.068 1914.32 814.804C1910.6 816.786 1908.76 819.298 1908.76 822.339C1908.76 823.926 1909.41 825.115 1910.73 825.908C1912.03 826.702 1914.27 827.032 1917.41 827.032H1927.64C1933.95 827.032 1938.74 828.353 1942.08 830.997C1945.42 833.641 1947.12 837.541 1947.12 842.631C1947.12 849.108 1944.57 854 1939.39 857.437C1934.2 860.874 1926.72 862.526 1916.89 862.526C1909.28 862.526 1903.52 861.138 1899.38 858.297C1895.24 855.455 1893.22 851.423 1893.22 846.267C1893.22 842.696 1894.34 839.657 1896.63 837.078C1898.86 834.501 1902.07 832.716 1906.14 831.791C1904.62 831.131 1903.37 830.072 1902.4 828.684C1901.4 827.296 1900.88 825.645 1900.88 823.727C1900.88 821.611 1901.48 819.761 1902.6 818.109C1903.72 816.522 1905.49 815.002 1907.91 813.483C1904.89 812.227 1902.47 810.111 1900.55 807.136C1898.66 804.162 1897.73 800.725 1897.73 796.892C1897.73 790.48 1899.65 785.588 1903.44 782.086C1907.26 778.649 1912.62 776.864 1919.64 776.864C1922.65 776.864 1925.42 777.194 1927.84 777.921H1947.84V777.856ZM1901.67 846.002C1901.67 849.175 1902.99 851.555 1905.61 853.207C1908.23 854.86 1912.03 855.652 1916.96 855.652C1924.3 855.652 1929.74 854.529 1933.28 852.348C1936.82 850.1 1938.59 847.126 1938.59 843.293C1938.59 840.12 1937.62 837.938 1935.72 836.682C1933.75 835.493 1930.13 834.832 1924.77 834.832H1914.27C1910.26 834.832 1907.19 835.757 1904.94 837.675C1902.72 839.59 1901.6 842.368 1901.6 845.937L1901.67 846.002ZM1906.39 796.494C1906.39 800.593 1907.51 803.634 1909.81 805.748C1912.1 807.864 1915.32 808.922 1919.38 808.922C1927.91 808.922 1932.23 804.756 1932.23 796.362C1932.23 787.968 1927.91 783.208 1919.26 783.208C1915.12 783.208 1911.97 784.332 1909.73 786.58C1907.51 788.827 1906.39 792.132 1906.39 796.561V796.494Z" fill="white"/>
<path d="M1952.54 777.874H1961.91L1974.58 811.186C1977.33 818.786 1979.1 824.273 1979.77 827.645H1980.15C1980.62 825.859 1981.59 822.753 1983.04 818.324C1984.48 813.896 1989.27 800.479 1997.4 777.874H2006.78L1981.92 844.301C1979.42 850.845 1976.55 855.538 1973.26 858.313C1969.99 861.091 1965.92 862.412 1961.14 862.412C1958.44 862.412 1955.82 862.081 1953.2 861.487V854.414C1955.1 854.811 1957.32 855.075 1959.69 855.075C1965.73 855.075 1969.99 851.638 1972.61 844.83L1975.83 836.501L1952.48 777.807L1952.54 777.874Z" fill="white"/>
<path d="M2045.11 836.23V758.366H2054.09V836.23H2045.11Z" fill="white"/>
<path d="M2113.57 836.24V798.498C2113.57 793.74 2112.51 790.171 2110.36 787.856C2108.19 785.543 2104.85 784.354 2100.26 784.354C2094.22 784.354 2089.76 786.006 2086.94 789.311C2084.12 792.616 2082.75 798.036 2082.75 805.636V836.24H2073.95V777.876H2081.1L2082.55 785.874H2082.95C2084.72 782.966 2087.26 780.785 2090.48 779.198C2093.7 777.612 2097.29 776.818 2101.3 776.818C2108.26 776.818 2113.5 778.537 2117.04 781.907C2120.59 785.279 2122.36 790.699 2122.36 798.168V836.24H2113.57Z" fill="white"/>
<path d="M2159 830.045C2160.57 830.045 2162.02 829.911 2163.52 829.714C2164.96 829.448 2166.08 829.251 2166.93 828.986V835.728C2166.01 836.191 2164.57 836.588 2162.74 836.852C2160.9 837.116 2159.2 837.315 2157.75 837.315C2146.53 837.315 2140.97 831.366 2140.97 819.468V784.768H2132.69V780.537L2140.97 776.834L2144.64 764.342H2149.68V777.893H2166.48V784.768H2149.68V819.137C2149.68 822.641 2150.54 825.352 2152.17 827.202C2153.82 829.053 2156.11 830.045 2159 830.045Z" fill="white"/>
<path d="M2203.02 837.364C2194.44 837.364 2187.75 834.72 2182.76 829.499C2177.78 824.276 2175.35 816.94 2175.35 807.62C2175.35 798.301 2177.65 790.765 2182.24 785.212C2186.83 779.661 2192.99 776.885 2200.72 776.885C2208.01 776.885 2213.72 779.263 2217.98 784.09C2222.25 788.915 2224.34 795.26 2224.34 803.126V808.744H2184.46C2184.66 815.619 2186.36 820.774 2189.65 824.343C2192.92 827.912 2197.51 829.696 2203.42 829.696C2209.65 829.696 2215.81 828.375 2221.92 825.731V833.596C2218.83 834.919 2215.89 835.911 2213.12 836.505C2210.37 837.1 2207.03 837.364 2203.09 837.364H2203.02ZM2200.67 784.222C2196.01 784.222 2192.34 785.742 2189.52 788.781C2186.7 791.823 2185.13 796.053 2184.59 801.473H2214.89C2214.89 795.921 2213.64 791.624 2211.22 788.649C2208.73 785.675 2205.26 784.222 2200.67 784.222Z" fill="white"/>
<path d="M2286.67 777.875V783.494L2275.97 784.75C2276.96 786.005 2277.81 787.592 2278.59 789.641C2279.38 791.691 2279.78 793.937 2279.78 796.449C2279.78 802.201 2277.81 806.695 2273.94 810.132C2270.08 813.569 2264.76 815.221 2258.01 815.221C2256.29 815.221 2254.66 815.089 2253.15 814.825C2249.41 816.808 2247.58 819.32 2247.58 822.359C2247.58 823.946 2248.23 825.137 2249.55 825.93C2250.85 826.721 2253.09 827.052 2256.24 827.052H2266.46C2272.75 827.052 2277.54 828.375 2280.88 831.019C2284.23 833.663 2285.94 837.562 2285.94 842.651C2285.94 849.13 2283.38 854.021 2278.21 857.459C2273.02 860.896 2265.54 862.547 2255.71 862.547C2248.1 862.547 2242.32 861.16 2238.2 858.317C2234.06 855.474 2232.02 851.443 2232.02 846.287C2232.02 842.718 2233.14 839.678 2235.44 837.1C2237.68 834.523 2240.88 832.737 2244.94 831.812C2243.44 831.151 2242.2 830.093 2241.22 828.706C2240.23 827.318 2239.7 825.664 2239.7 823.749C2239.7 821.633 2240.3 819.782 2241.4 818.13C2242.52 816.544 2244.29 815.022 2246.71 813.502C2243.71 812.247 2241.27 810.132 2239.38 807.158C2237.48 804.183 2236.56 800.746 2236.56 796.911C2236.56 790.5 2238.45 785.61 2242.27 782.106C2246.06 778.669 2251.45 776.885 2258.46 776.885C2261.48 776.885 2264.22 777.216 2266.66 777.942H2286.67V777.875ZM2240.5 846.088C2240.5 849.262 2241.8 851.642 2244.42 853.293C2247.06 854.947 2250.85 855.74 2255.77 855.74C2263.12 855.74 2268.56 854.616 2272.1 852.435C2275.64 850.187 2277.41 847.212 2277.41 843.379C2277.41 840.206 2276.44 838.025 2274.52 836.769C2272.55 835.58 2268.96 834.919 2263.57 834.919H2253.09C2249.08 834.919 2246.01 835.844 2243.77 837.761C2241.54 839.678 2240.42 842.454 2240.42 846.023L2240.5 846.088ZM2245.29 796.582C2245.29 800.679 2246.39 803.721 2248.68 805.835C2250.98 807.951 2254.19 809.008 2258.26 809.008C2266.79 809.008 2271.13 804.845 2271.13 796.449C2271.13 788.055 2266.79 783.297 2258.13 783.297C2253.99 783.297 2250.85 784.419 2248.63 786.667C2246.39 788.915 2245.29 792.218 2245.29 796.648V796.582Z" fill="white"/>
<path d="M2324.94 776.818C2327.49 776.818 2329.78 777.017 2331.89 777.48L2330.65 785.675C2328.21 785.147 2326.11 784.882 2324.29 784.882C2319.62 784.882 2315.56 786.799 2312.27 790.634C2309 794.467 2307.3 799.227 2307.3 804.977V836.307H2298.5V777.942H2305.71L2306.7 788.781H2307.1C2309.25 784.949 2311.82 782.041 2314.84 779.992C2317.85 777.942 2321.2 776.885 2324.81 776.885L2324.94 776.818Z" fill="white"/>
<path d="M2378.32 836.25L2376.54 827.921H2376.15C2373.27 831.557 2370.38 834.069 2367.49 835.325C2364.62 836.646 2361.08 837.242 2356.74 837.242C2350.98 837.242 2346.51 835.721 2343.24 832.746C2339.95 829.772 2338.31 825.541 2338.31 819.99C2338.31 808.224 2347.69 802.011 2366.39 801.483L2376.22 801.153V797.517C2376.22 792.956 2375.24 789.519 2373.27 787.337C2371.3 785.156 2368.16 784.032 2363.9 784.032C2359.03 784.032 2353.6 785.554 2347.49 788.528L2344.81 781.786C2347.69 780.199 2350.78 779.01 2354.19 778.083C2357.59 777.225 2361 776.762 2364.42 776.762C2371.3 776.762 2376.42 778.282 2379.76 781.388C2383.1 784.495 2384.75 789.453 2384.75 796.261V836.118H2378.26L2378.32 836.25ZM2358.51 830.038C2363.95 830.038 2368.29 828.516 2371.38 825.541C2374.45 822.502 2376.02 818.271 2376.02 812.852V807.564L2367.24 807.96C2360.28 808.224 2355.24 809.283 2352.15 811.265C2349.08 813.183 2347.49 816.222 2347.49 820.321C2347.49 823.494 2348.48 825.939 2350.38 827.591C2352.28 829.244 2354.97 830.103 2358.46 830.103L2358.51 830.038Z" fill="white"/>
<path d="M2419.61 830.045C2421.18 830.045 2422.63 829.911 2424.13 829.714C2425.57 829.448 2426.69 829.251 2427.54 828.986V835.728C2426.62 836.191 2425.18 836.588 2423.35 836.852C2421.51 837.116 2419.81 837.315 2418.36 837.315C2407.14 837.315 2401.58 831.366 2401.58 819.468V784.768H2393.32V780.537L2401.58 776.834L2405.25 764.342H2410.3V777.893H2427.09V784.768H2410.3V819.137C2410.3 822.641 2411.15 825.352 2412.8 827.202C2414.42 829.053 2416.72 830.045 2419.61 830.045Z" fill="white"/>
<path d="M2438.37 762.089C2438.37 760.039 2438.89 758.586 2439.87 757.661C2440.86 756.734 2442.11 756.271 2443.54 756.271C2444.98 756.271 2446.17 756.734 2447.22 757.726C2448.27 758.718 2448.72 760.171 2448.72 762.155C2448.72 764.138 2448.2 765.593 2447.22 766.583C2446.17 767.575 2444.98 768.038 2443.54 768.038C2442.04 768.038 2440.86 767.575 2439.87 766.583C2438.89 765.593 2438.37 764.138 2438.37 762.155V762.089ZM2447.87 836.25H2439.09V777.886H2447.87V836.25Z" fill="white"/>
<path d="M2514.47 807.026C2514.47 816.544 2512.1 823.946 2507.31 829.3C2502.54 834.655 2495.98 837.299 2487.65 837.299C2482.46 837.299 2477.87 836.043 2473.88 833.596C2469.87 831.151 2466.8 827.649 2464.56 823.021C2462.39 818.46 2461.29 813.107 2461.29 806.959C2461.29 797.441 2463.64 790.037 2468.37 784.75C2473.09 779.462 2479.65 776.818 2488.03 776.818C2496.43 776.818 2502.59 779.529 2507.38 784.949C2512.17 790.368 2514.54 797.705 2514.54 807.026H2514.47ZM2470.34 807.026C2470.34 814.495 2471.84 820.178 2474.78 824.078C2477.75 827.978 2482.07 829.962 2487.85 829.962C2493.61 829.962 2497.93 828.044 2500.9 824.145C2503.84 820.245 2505.36 814.56 2505.36 807.091C2505.36 799.622 2503.84 794.004 2500.9 790.171C2497.93 786.336 2493.54 784.419 2487.7 784.419C2481.87 784.419 2477.6 786.336 2474.73 790.104C2471.77 793.937 2470.34 799.555 2470.34 807.091V807.026Z" fill="white"/>
<path d="M2569.43 836.24V798.498C2569.43 793.74 2568.39 790.171 2566.22 787.856C2564.05 785.543 2560.71 784.354 2556.12 784.354C2550.08 784.354 2545.62 786.006 2542.8 789.311C2539.98 792.616 2538.61 798.036 2538.61 805.636V836.24H2529.82V777.876H2536.96L2538.41 785.874H2538.81C2540.58 782.966 2543.12 780.785 2546.34 779.198C2549.56 777.612 2553.17 776.818 2557.16 776.818C2564.12 776.818 2569.36 778.537 2572.9 781.907C2576.45 785.279 2578.22 790.699 2578.22 798.168V836.24H2569.43Z" fill="white"/>
<path d="M2675.64 781.105C2675.64 788.969 2672.94 795.052 2667.63 799.28C2662.32 803.511 2654.64 805.627 2644.74 805.627H2635.63V836.23H2626.63V758.366H2646.63C2665.92 758.366 2675.64 765.901 2675.64 781.038V781.105ZM2635.63 797.893H2643.69C2651.62 797.893 2657.4 796.572 2660.95 793.993C2664.49 791.416 2666.26 787.251 2666.26 781.5C2666.26 776.345 2664.61 772.512 2661.2 770C2657.86 767.488 2652.67 766.232 2645.59 766.232H2635.56V797.893H2635.63Z" fill="white"/>
<path d="M2726.11 836.25L2724.34 827.921H2723.96C2721.06 831.557 2718.17 834.069 2715.28 835.325C2712.41 836.646 2708.87 837.242 2704.53 837.242C2698.77 837.242 2694.3 835.721 2691.03 832.746C2687.74 829.772 2686.1 825.541 2686.1 819.99C2686.1 808.224 2695.48 802.011 2714.18 801.483L2724.01 801.153V797.517C2724.01 792.956 2723.03 789.519 2721.06 787.337C2719.09 785.156 2715.95 784.032 2711.69 784.032C2706.83 784.032 2701.39 785.554 2695.3 788.528L2692.6 781.786C2695.48 780.199 2698.57 779.01 2701.98 778.083C2705.38 777.225 2708.79 776.762 2712.21 776.762C2719.09 776.762 2724.21 778.282 2727.55 781.388C2730.89 784.495 2732.54 789.453 2732.54 796.261V836.118H2726.05L2726.11 836.25ZM2706.3 830.038C2711.74 830.038 2716.08 828.516 2719.17 825.541C2722.24 822.502 2723.81 818.271 2723.81 812.852V807.564L2715.03 807.96C2708.07 808.224 2703.03 809.283 2699.94 811.265C2696.87 813.183 2695.3 816.222 2695.3 820.321C2695.3 823.494 2696.27 825.939 2698.17 827.591C2700.07 829.244 2702.76 830.103 2706.25 830.103L2706.3 830.038Z" fill="white"/>
<path d="M2774.06 776.818C2776.63 776.818 2778.92 777.017 2781.02 777.48L2779.77 785.675C2777.35 785.147 2775.26 784.882 2773.41 784.882C2768.75 784.882 2764.68 786.799 2761.41 790.634C2758.13 794.467 2756.43 799.227 2756.43 804.977V836.307H2747.64V777.942H2754.85L2755.83 788.781H2756.23C2758.4 784.949 2760.94 782.041 2763.96 779.992C2766.98 777.942 2770.32 776.885 2773.94 776.885L2774.06 776.818Z" fill="white"/>
<path d="M2812.53 830.045C2814.12 830.045 2815.55 829.911 2817.06 829.714C2818.51 829.448 2819.61 829.251 2820.48 828.986V835.728C2819.56 836.191 2818.11 836.588 2816.27 836.852C2814.44 837.116 2812.73 837.315 2811.28 837.315C2800.08 837.315 2794.49 831.366 2794.49 819.468V784.768H2786.24V780.537L2794.49 776.834L2798.18 764.342H2803.22V777.893H2820.01V784.768H2803.22V819.137C2803.22 822.641 2804.07 825.352 2805.72 827.202C2807.36 829.053 2809.66 830.045 2812.53 830.045Z" fill="white"/>
<path d="M2874.69 836.24V798.498C2874.69 793.74 2873.64 790.171 2871.47 787.856C2869.32 785.543 2865.98 784.354 2861.39 784.354C2855.35 784.354 2850.89 786.006 2848.07 789.311C2845.25 792.616 2843.88 798.036 2843.88 805.636V836.24H2835.08V777.876H2842.24L2843.68 785.874H2844.06C2845.83 782.966 2848.4 780.785 2851.61 779.198C2854.83 777.612 2858.43 776.818 2862.44 776.818C2869.38 776.818 2874.63 778.537 2878.18 781.907C2881.72 785.279 2883.49 790.699 2883.49 798.168V836.24H2874.69Z" fill="white"/>
<path d="M2925.94 837.364C2917.33 837.364 2910.65 834.72 2905.66 829.499C2900.69 824.276 2898.25 816.94 2898.25 807.62C2898.25 798.301 2900.55 790.765 2905.14 785.212C2909.73 779.661 2915.91 776.885 2923.64 776.885C2930.92 776.885 2936.61 779.263 2940.88 784.09C2945.14 788.915 2947.24 795.26 2947.24 803.126V808.744H2907.38C2907.58 815.619 2909.27 820.774 2912.55 824.343C2915.83 827.912 2920.42 829.696 2926.33 829.696C2932.55 829.696 2938.73 828.375 2944.82 825.731V833.596C2941.75 834.919 2938.78 835.911 2936.04 836.505C2933.27 837.1 2929.93 837.364 2926.01 837.364H2925.94ZM2923.57 784.222C2918.92 784.222 2915.24 785.742 2912.42 788.781C2909.6 791.823 2908.03 796.053 2907.5 801.473H2937.81C2937.81 795.921 2936.56 791.624 2934.14 788.649C2931.65 785.675 2928.16 784.222 2923.57 784.222Z" fill="white"/>
<path d="M2988.62 776.818C2991.19 776.818 2993.48 777.017 2995.58 777.48L2994.33 785.675C2991.89 785.147 2989.79 784.882 2987.97 784.882C2983.31 784.882 2979.24 786.799 2975.97 790.634C2972.68 794.467 2970.98 799.227 2970.98 804.977V836.307H2962.18V777.942H2969.41L2970.39 788.781H2970.78C2972.95 784.949 2975.5 782.041 2978.52 779.992C2981.54 777.942 2984.88 776.885 2988.49 776.885L2988.62 776.818Z" fill="white"/>
</g>
<defs>
<clipPath id="clip0_1_357">
<rect width="3761" height="885" fill="white"/>
</clipPath>
</defs>
</svg>
