<svg width="18" height="14" viewBox="0 0 18 14" fill="none" xmlns="http://www.w3.org/2000/svg">
<path fill-rule="evenodd" clip-rule="evenodd" d="M7.75 1.375C5.67893 1.375 4 3.05393 4 5.125C4 5.36379 4.02224 5.59681 4.06459 5.82228C4.12242 6.13012 3.94344 6.43322 3.64596 6.53126C2.39886 6.94225 1.5 8.11697 1.5 9.5C1.5 11.2259 2.89911 12.625 4.625 12.625H14C15.3807 12.625 16.5 11.5057 16.5 10.125C16.5 9.05792 15.8312 8.14549 14.8877 7.78701C14.5709 7.66664 14.4078 7.3157 14.5199 6.99589C14.5878 6.80238 14.625 6.5937 14.625 6.375C14.625 5.33947 13.7855 4.5 12.75 4.5C12.5469 4.5 12.3525 4.53208 12.1709 4.59097C12.0077 4.64389 11.8299 4.62741 11.6792 4.5454C11.5286 4.46338 11.4182 4.32303 11.3741 4.15725C10.9475 2.5548 9.48572 1.375 7.75 1.375ZM2.75 5.125C2.75 2.36358 4.98858 0.125 7.75 0.125C9.85663 0.125 11.6578 1.42735 12.3944 3.27007C12.5113 3.2568 12.6299 3.25 12.75 3.25C14.4759 3.25 15.875 4.64911 15.875 6.375C15.875 6.53827 15.8624 6.69887 15.8381 6.85582C16.9787 7.49845 17.75 8.72105 17.75 10.125C17.75 12.1961 16.0711 13.875 14 13.875H4.625C2.20875 13.875 0.25 11.9162 0.25 9.5C0.25 7.74738 1.28022 6.2367 2.76687 5.53825C2.75569 5.40187 2.75 5.26405 2.75 5.125ZM8.55806 4.68306C8.80214 4.43898 9.19786 4.43898 9.44194 4.68306L11.9419 7.18306C12.186 7.42714 12.186 7.82286 11.9419 8.06694C11.6979 8.31102 11.3021 8.31102 11.0581 8.06694L9.625 6.63388L9.625 10.75C9.625 11.0952 9.34518 11.375 9 11.375C8.65482 11.375 8.375 11.0952 8.375 10.75L8.375 6.63388L6.94194 8.06694C6.69786 8.31102 6.30214 8.31102 6.05806 8.06694C5.81398 7.82286 5.81398 7.42714 6.05806 7.18306L8.55806 4.68306Z" fill="#7F8FA8"/>
</svg>
