<svg  viewBox="0 0 21 18" fill="none" xmlns="http://www.w3.org/2000/svg">
<path fill-rule="evenodd" clip-rule="evenodd" d="M0 3.75C0 2.09315 1.34315 0.75 3 0.75H18C19.6569 0.75 21 2.09315 21 3.75V14.25C21 15.9069 19.6569 17.25 18 17.25H3C1.34315 17.25 0 15.9069 0 14.25V3.75ZM1.5 3.75V3.99271C1.5 4.5136 1.77023 4.9972 2.21385 5.2702L9.71385 9.88558C10.196 10.1823 10.804 10.1823 11.2861 9.88558L18.7861 5.2702C19.2298 4.9972 19.5 4.5136 19.5 3.99271V3.75C19.5 2.92157 18.8284 2.25 18 2.25H3C2.17157 2.25 1.5 2.92157 1.5 3.75ZM19.5 6.59217L12.0723 11.1631C11.1081 11.7564 9.89193 11.7564 8.92771 11.1631L1.5 6.59217V14.25C1.5 15.0784 2.17157 15.75 3 15.75H18C18.8284 15.75 19.5 15.0784 19.5 14.25V6.59217Z" fill=""/>
</svg>
