<svg  viewBox="0 0 21 22" fill="none" xmlns="http://www.w3.org/2000/svg">
<path fill-rule="evenodd" clip-rule="evenodd" d="M9.98428 1.16968C10.2735 0.895751 10.7265 0.895751 11.0157 1.16968C13.0325 3.07965 15.7538 4.24998 18.75 4.24998C18.7977 4.24998 18.8453 4.24969 18.8928 4.2491C19.2202 4.24503 19.5123 4.45378 19.6146 4.76479C20.0271 6.01955 20.25 7.35951 20.25 8.75003C20.25 14.692 16.1859 19.683 10.6869 21.0983C10.5643 21.1299 10.4357 21.1299 10.3131 21.0983C4.81406 19.683 0.75 14.692 0.75 8.75003C0.75 7.35951 0.972873 6.01955 1.38541 4.76479C1.48767 4.45378 1.77984 4.24503 2.10721 4.2491C2.15473 4.24969 2.20233 4.24998 2.25 4.24998C5.24624 4.24998 7.96752 3.07965 9.98428 1.16968ZM2.65599 5.74364C2.3915 6.69988 2.25 7.7079 2.25 8.75003C2.25 13.9235 5.7428 18.2831 10.5 19.5958C15.2572 18.2831 18.75 13.9235 18.75 8.75003C18.75 7.70789 18.6085 6.69989 18.344 5.74364C15.3566 5.65013 12.6272 4.52829 10.5 2.7214C8.37277 4.52829 5.64341 5.65013 2.65599 5.74364ZM10.5 7.24997C10.9142 7.24997 11.25 7.58576 11.25 7.99997V11.75C11.25 12.1642 10.9142 12.5 10.5 12.5C10.0858 12.5 9.75 12.1642 9.75 11.75V7.99997C9.75 7.58576 10.0858 7.24997 10.5 7.24997ZM9.75 14.75C9.75 14.3358 10.0858 14 10.5 14H10.5075C10.9217 14 11.2575 14.3358 11.2575 14.75V14.7575C11.2575 15.1717 10.9217 15.5075 10.5075 15.5075H10.5C10.0858 15.5075 9.75 15.1717 9.75 14.7575V14.75Z" fill="#D00F32"/>
</svg>
