<svg  viewBox="0 0 18 22" fill="none" xmlns="http://www.w3.org/2000/svg">
<path fill-rule="evenodd" clip-rule="evenodd" d="M2.625 2C2.41789 2 2.25 2.16789 2.25 2.375V19.625C2.25 19.8321 2.41789 20 2.625 20H15.375C15.5821 20 15.75 19.8321 15.75 19.625V10.625C15.75 9.17525 14.5747 8 13.125 8H11.625C10.5895 8 9.75 7.16053 9.75 6.125V4.625C9.75 3.17525 8.57475 2 7.125 2H2.625ZM2.625 0.5C1.58947 0.5 0.75 1.33947 0.75 2.375V19.625C0.75 20.6605 1.58947 21.5 2.625 21.5H15.375C16.4105 21.5 17.25 20.6605 17.25 19.625V10.25C17.25 4.86522 12.8848 0.5 7.5 0.5H2.625ZM10.757 2.66785C11.0715 3.25019 11.25 3.91675 11.25 4.625V6.125C11.25 6.33211 11.4179 6.5 11.625 6.5H13.125C13.8332 6.5 14.4998 6.6785 15.0821 6.99296C14.2488 5.05549 12.6945 3.50123 10.757 2.66785ZM4.5 14C4.5 13.5858 4.83579 13.25 5.25 13.25H12.75C13.1642 13.25 13.5 13.5858 13.5 14C13.5 14.4142 13.1642 14.75 12.75 14.75H5.25C4.83579 14.75 4.5 14.4142 4.5 14ZM4.5 17C4.5 16.5858 4.83579 16.25 5.25 16.25H9C9.41421 16.25 9.75 16.5858 9.75 17C9.75 17.4142 9.41421 17.75 9 17.75H5.25C4.83579 17.75 4.5 17.4142 4.5 17Z" fill="#35426F"/>
</svg>
