<svg viewBox="0 0 24 18" fill="none" xmlns="http://www.w3.org/2000/svg">
<path fill-rule="evenodd" clip-rule="evenodd" d="M12 2.25C10.7869 2.25 9.58465 2.2957 8.39481 2.38545C6.78038 2.50723 5.50723 3.78038 5.38545 5.39481C5.34144 5.97827 5.30802 6.56471 5.28539 7.15395L6.96967 5.46967C7.26256 5.17678 7.73744 5.17678 8.03033 5.46967C8.32322 5.76256 8.32322 6.23744 8.03033 6.53033L5.03033 9.53033C4.73744 9.82322 4.26256 9.82322 3.96967 9.53033L0.96967 6.53033C0.676777 6.23744 0.676777 5.76256 0.96967 5.46967C1.26256 5.17678 1.73744 5.17678 2.03033 5.46967L3.78186 7.2212C3.80517 6.57151 3.84119 5.92503 3.8897 5.28199C4.06725 2.92812 5.92812 1.06725 8.28199 0.889699C9.50933 0.797119 10.7492 0.75 12 0.75C13.2508 0.75 14.4907 0.797119 15.718 0.889699C18.0719 1.06725 19.9327 2.92812 20.1103 5.28199C20.1272 5.50552 20.1425 5.72948 20.1564 5.95384C20.1818 6.36727 19.8674 6.72308 19.4539 6.74858C19.0405 6.77407 18.6847 6.45959 18.6592 6.04616C18.6458 5.82864 18.6309 5.61152 18.6146 5.39481C18.4928 3.78038 17.2196 2.50723 15.6052 2.38545C14.4153 2.2957 13.2131 2.25 12 2.25ZM18.9697 8.46967C19.2626 8.17678 19.7374 8.17678 20.0303 8.46967L23.0303 11.4697C23.3232 11.7626 23.3232 12.2374 23.0303 12.5303C22.7374 12.8232 22.2626 12.8232 21.9697 12.5303L20.2181 10.7788C20.1948 11.4285 20.1588 12.075 20.1103 12.718C19.9327 15.0719 18.0719 16.9327 15.718 17.1103C14.4907 17.2029 13.2508 17.25 12 17.25C10.7492 17.25 9.50933 17.2029 8.28199 17.1103C5.92812 16.9327 4.06725 15.0719 3.8897 12.718C3.87284 12.4945 3.85748 12.2705 3.84365 12.0462C3.81815 11.6327 4.13264 11.2769 4.54606 11.2514C4.95949 11.2259 5.31531 11.5404 5.3408 11.9538C5.35422 12.1714 5.3691 12.3885 5.38545 12.6052C5.50723 14.2196 6.78038 15.4928 8.39481 15.6146C9.58465 15.7043 10.7869 15.75 12 15.75C13.2131 15.75 14.4153 15.7043 15.6052 15.6146C17.2196 15.4928 18.4928 14.2196 18.6146 12.6052C18.6586 12.0217 18.692 11.4353 18.7146 10.8461L17.0303 12.5303C16.7374 12.8232 16.2626 12.8232 15.9697 12.5303C15.6768 12.2374 15.6768 11.7626 15.9697 11.4697L18.9697 8.46967Z" fill=""/>
</svg>
