<svg width="18" height="24" viewBox="0 0 18 24" fill="none" xmlns="http://www.w3.org/2000/svg">
<path fill-rule="evenodd" clip-rule="evenodd" d="M9 2.25C5.27208 2.25 2.25 5.27208 2.25 9C2.25 11.4944 3.6026 13.6737 5.61794 14.843C6.61525 15.4217 7.5 16.4733 7.5 17.8083V18C7.5 18.4142 7.16422 18.75 6.75 18.75C6.33579 18.75 6 18.4142 6 18V17.8083C6 17.1776 5.5682 16.5484 4.86516 16.1405C2.40631 14.7138 0.75 12.0508 0.75 9C0.75 4.44365 4.44365 0.75 9 0.75C13.5563 0.75 17.25 4.44365 17.25 9C17.25 12.0508 15.5937 14.7138 13.1348 16.1405C12.4318 16.5484 12 17.1776 12 17.8083V18C12 18.4142 11.6642 18.75 11.25 18.75C10.8358 18.75 10.5 18.4142 10.5 18V17.8083C10.5 16.4733 11.3847 15.4217 12.3821 14.843C14.3974 13.6737 15.75 11.4944 15.75 9C15.75 5.27208 12.7279 2.25 9 2.25ZM6.77367 12.3741C6.87692 11.973 7.2858 11.7315 7.68694 11.8347C8.10576 11.9425 8.54558 12 9 12C9.45442 12 9.89424 11.9425 10.3131 11.8347C10.7142 11.7315 11.1231 11.973 11.2263 12.3741C11.3296 12.7752 11.0881 13.1841 10.6869 13.2874C10.3822 13.3658 10.0693 13.4234 9.75 13.4588V18C9.75 18.4142 9.41421 18.75 9 18.75C8.58579 18.75 8.25 18.4142 8.25 18V13.4588C7.93072 13.4234 7.61785 13.3658 7.31306 13.2874C6.91192 13.1841 6.67043 12.7752 6.77367 12.3741ZM6.01314 19.8997C6.09034 19.4927 6.48282 19.2254 6.88978 19.3026C7.57275 19.4321 8.2781 19.5 9 19.5C9.72191 19.5 10.4273 19.4321 11.1102 19.3026C11.5172 19.2254 11.9097 19.4927 11.9869 19.8997C12.0641 20.3066 11.7967 20.6991 11.3898 20.7763C10.6151 20.9232 9.81618 21 9 21C8.18382 21 7.38489 20.9232 6.61022 20.7763C6.20327 20.6991 5.93594 20.3066 6.01314 19.8997ZM6.75407 22.344C6.79717 21.932 7.16607 21.633 7.57803 21.6761C8.04511 21.7249 8.5195 21.75 9 21.75C9.4805 21.75 9.95489 21.7249 10.422 21.6761C10.8339 21.633 11.2028 21.932 11.2459 22.344C11.289 22.7559 10.99 23.1248 10.578 23.1679C10.0592 23.2222 9.53272 23.25 9 23.25C8.46728 23.25 7.9408 23.2222 7.42197 23.1679C7.01 23.1248 6.71097 22.7559 6.75407 22.344Z" fill="#3C12ED"/>
</svg>
