<svg width="18" height="14" viewBox="0 0 20 14" fill="none" xmlns="http://www.w3.org/2000/svg">
<path fill-rule="evenodd" clip-rule="evenodd" d="M10 1.375C8.9891 1.375 7.98721 1.41308 6.99568 1.48787C5.65031 1.58936 4.58936 2.65031 4.48787 3.99568C4.4512 4.48189 4.42335 4.97059 4.40449 5.46163L5.80806 4.05806C6.05214 3.81398 6.44786 3.81398 6.69194 4.05806C6.93602 4.30214 6.93602 4.69786 6.69194 4.94194L4.19194 7.44194C3.94786 7.68602 3.55214 7.68602 3.30806 7.44194L0.808058 4.94194C0.563981 4.69786 0.563981 4.30214 0.808058 4.05806C1.05214 3.81398 1.44786 3.81398 1.69194 4.05806L3.15155 5.51767C3.17097 4.97626 3.20099 4.43752 3.24142 3.90166C3.38938 1.9401 4.9401 0.389378 6.90166 0.241416C7.92444 0.164266 8.95769 0.125 10 0.125C11.0423 0.125 12.0756 0.164266 13.0983 0.241416C15.0599 0.389378 16.6106 1.9401 16.7586 3.90166C16.7726 4.08793 16.7854 4.27456 16.797 4.46153C16.8182 4.80606 16.5561 5.10257 16.2116 5.12382C15.8671 5.14506 15.5706 4.88299 15.5493 4.53847C15.5382 4.3572 15.5257 4.17627 15.5121 3.99568C15.4106 2.65031 14.3497 1.58936 13.0043 1.48787C12.0128 1.41308 11.0109 1.375 10 1.375ZM15.8081 6.55806C16.0521 6.31398 16.4479 6.31398 16.6919 6.55806L19.1919 9.05806C19.436 9.30214 19.436 9.69786 19.1919 9.94194C18.9479 10.186 18.5521 10.186 18.3081 9.94194L16.8485 8.48234C16.829 9.02374 16.799 9.56248 16.7586 10.0983C16.6106 12.0599 15.0599 13.6106 13.0983 13.7586C12.0756 13.8357 11.0423 13.875 10 13.875C8.9577 13.875 7.92444 13.8357 6.90166 13.7586C4.9401 13.6106 3.38938 12.0599 3.24142 10.0983C3.22736 9.91206 3.21457 9.72544 3.20304 9.53847C3.18179 9.19394 3.44386 8.89743 3.78839 8.87618C4.13291 8.85494 4.42942 9.11701 4.45067 9.46153C4.46185 9.6428 4.47425 9.82373 4.48787 10.0043C4.58936 11.3497 5.65031 12.4106 6.99568 12.5121C7.98721 12.5869 8.9891 12.625 10 12.625C11.0109 12.625 12.0128 12.5869 13.0043 12.5121C14.3497 12.4106 15.4106 11.3497 15.5121 10.0043C15.5488 9.51811 15.5766 9.02941 15.5955 8.53838L14.1919 9.94194C13.9479 10.186 13.5521 10.186 13.3081 9.94194C13.064 9.69786 13.064 9.30214 13.3081 9.05806L15.8081 6.55806Z" fill=""/>
</svg>
