<svg width="14" height="14" viewBox="0 0 14 14" fill="none" xmlns="http://www.w3.org/2000/svg">
<path d="M13.5305 12.4693L10.5624 9.49991C11.4524 8.34021 11.8678 6.88541 11.7246 5.43063C11.5814 3.97585 10.8901 2.63002 9.79107 1.66616C8.69203 0.702295 7.26751 0.192572 5.80648 0.240389C4.34544 0.288205 2.9573 0.88998 1.92364 1.92364C0.88998 2.9573 0.288205 4.34544 0.240389 5.80648C0.192572 7.26751 0.702295 8.69203 1.66616 9.79107C2.63002 10.8901 3.97585 11.5814 5.43063 11.7246C6.88541 11.8678 8.34021 11.4524 9.49991 10.5624L12.4705 13.5337C12.5403 13.6034 12.6231 13.6588 12.7143 13.6965C12.8054 13.7343 12.9031 13.7537 13.0018 13.7537C13.1005 13.7537 13.1981 13.7343 13.2893 13.6965C13.3805 13.6588 13.4633 13.6034 13.533 13.5337C13.6028 13.4639 13.6581 13.3811 13.6959 13.2899C13.7337 13.1988 13.7531 13.1011 13.7531 13.0024C13.7531 12.9038 13.7337 12.8061 13.6959 12.7149C13.6581 12.6238 13.6028 12.5409 13.533 12.4712L13.5305 12.4693ZM1.74991 5.99991C1.74991 5.15934 1.99917 4.33765 2.46617 3.63874C2.93316 2.93983 3.59692 2.3951 4.37351 2.07343C5.1501 1.75175 6.00463 1.66759 6.82905 1.83158C7.65347 1.99556 8.41075 2.40034 9.00512 2.99471C9.59949 3.58908 10.0043 4.34636 10.1683 5.17078C10.3322 5.9952 10.2481 6.84973 9.9264 7.62632C9.60473 8.40291 9.06 9.06666 8.36109 9.53366C7.66218 10.0007 6.84049 10.2499 5.99991 10.2499C4.8731 10.2488 3.79277 9.80062 2.99599 9.00384C2.19921 8.20706 1.75107 7.12673 1.74991 5.99991Z" fill="#7F8FA8"/>
</svg>
