<svg width="48" height="48" viewBox="0 0 48 48" fill="none" xmlns="http://www.w3.org/2000/svg">
<path opacity="0.4" d="M48 24C48 37.2548 37.2548 48 24 48C10.7452 48 0 37.2548 0 24C0 10.7452 10.7452 0 24 0C37.2548 0 48 10.7452 48 24ZM7.2 24C7.2 33.2784 14.7216 40.8 24 40.8C33.2784 40.8 40.8 33.2784 40.8 24C40.8 14.7216 33.2784 7.2 24 7.2C14.7216 7.2 7.2 14.7216 7.2 24Z" fill="white"/>
<path d="M2.09815e-06 24C1.82261e-06 27.1517 0.620779 30.2726 1.82689 33.1844C3.03301 36.0962 4.80083 38.742 7.02944 40.9706C9.25805 43.1992 11.9038 44.967 14.8156 46.1731C17.7274 47.3792 20.8483 48 24 48L24 40.8C21.7938 40.8 19.6092 40.3655 17.5709 39.5212C15.5327 38.6769 13.6806 37.4394 12.1206 35.8794C10.5606 34.3194 9.32311 32.4673 8.47883 30.4291C7.63455 28.3908 7.2 26.2062 7.2 24L2.09815e-06 24Z" fill="white"/>
</svg>
