<svg  viewBox="0 0 25 24" fill="none" xmlns="http://www.w3.org/2000/svg">
<path opacity="0.4" d="M24.5 12C24.5 18.6274 19.1274 24 12.5 24C5.87258 24 0.5 18.6274 0.5 12C0.5 5.37258 5.87258 0 12.5 0C19.1274 0 24.5 5.37258 24.5 12ZM4.1 12C4.1 16.6392 7.86081 20.4 12.5 20.4C17.1392 20.4 20.9 16.6392 20.9 12C20.9 7.36081 17.1392 3.6 12.5 3.6C7.86081 3.6 4.1 7.36081 4.1 12Z" fill="white"/>
<path d="M24.5 12C24.5 10.4241 24.1896 8.86371 23.5866 7.4078C22.9835 5.95189 22.0996 4.62902 20.9853 3.51472C19.871 2.40042 18.5481 1.5165 17.0922 0.913445C15.6363 0.310389 14.0759 -6.88831e-08 12.5 0L12.5 3.6C13.6031 3.6 14.6954 3.81727 15.7145 4.23941C16.7337 4.66155 17.6597 5.28029 18.4397 6.0603C19.2197 6.84032 19.8384 7.76632 20.2606 8.78546C20.6827 9.80459 20.9 10.8969 20.9 12H24.5Z" fill="white"/>
</svg>
