<svg width="16" height="11" viewBox="0 0 16 12" fill="none" xmlns="http://www.w3.org/2000/svg">
<path d="M15.6873 5.69562C15.6641 5.645 15.1166 4.42937 13.9073 3.22C12.2891 1.60437 10.2498 0.75 7.99976 0.75C5.74976 0.75 3.71038 1.60437 2.09413 3.22C0.884757 4.42937 0.337257 5.645 0.312257 5.69562C0.269915 5.79162 0.248047 5.89539 0.248047 6.00031C0.248047 6.10523 0.269915 6.209 0.312257 6.305C0.335382 6.35625 0.882882 7.57125 2.09288 8.78063C3.71038 10.3963 5.74976 11.25 7.99976 11.25C10.2498 11.25 12.2891 10.3963 13.9048 8.78063C15.1148 7.57125 15.6623 6.35625 15.6854 6.305C15.728 6.20913 15.7502 6.10543 15.7505 6.00051C15.7509 5.89559 15.7293 5.79175 15.6873 5.69562ZM12.8085 7.75813C11.4666 9.07938 9.84913 9.75 7.99976 9.75C6.15038 9.75 4.53288 9.07937 3.19288 7.7575C2.6656 7.23577 2.21203 6.64447 1.84476 6C2.21214 5.35579 2.6657 4.76471 3.19288 4.24312C4.53351 2.92062 6.15038 2.25 7.99976 2.25C9.84913 2.25 11.466 2.92062 12.8066 4.24312C13.3339 4.76467 13.7874 5.35575 14.1548 6C13.7874 6.64443 13.3339 7.23572 12.8066 7.7575L12.8085 7.75813ZM7.99976 3.25C7.45586 3.25 6.92417 3.41128 6.47194 3.71346C6.0197 4.01563 5.66723 4.44512 5.45909 4.94762C5.25095 5.45012 5.19649 6.00305 5.3026 6.5365C5.40871 7.06995 5.67062 7.55995 6.05521 7.94454C6.43981 8.32914 6.92981 8.59105 7.46326 8.69716C7.99671 8.80327 8.54964 8.74881 9.05214 8.54067C9.55463 8.33253 9.98412 7.98005 10.2863 7.52782C10.5885 7.07558 10.7498 6.5439 10.7498 6C10.7489 5.27091 10.4589 4.57192 9.94339 4.05637C9.42784 3.54082 8.72885 3.25083 7.99976 3.25ZM7.99976 7.25C7.75253 7.25 7.51086 7.17669 7.30529 7.03934C7.09973 6.90199 6.93952 6.70676 6.84491 6.47835C6.7503 6.24995 6.72554 5.99861 6.77378 5.75614C6.82201 5.51366 6.94106 5.29093 7.11587 5.11612C7.29069 4.9413 7.51342 4.82225 7.75589 4.77402C7.99837 4.72579 8.2497 4.75054 8.47811 4.84515C8.70652 4.93976 8.90174 5.09998 9.03909 5.30554C9.17645 5.5111 9.24976 5.75277 9.24976 6C9.24976 6.33152 9.11806 6.64946 8.88364 6.88388C8.64922 7.1183 8.33128 7.25 7.99976 7.25Z" fill=""/>
</svg>
